<?xml version="1.0" standalone="no"?>
<!DOCTYPE svg PUBLIC "-//W3C//DTD SVG 20010904//EN"
 "http://www.w3.org/TR/2001/REC-SVG-20010904/DTD/svg10.dtd">
<svg version="1.0" xmlns="http://www.w3.org/2000/svg"
 width="50.000000pt" height="50.000000pt" viewBox="0 0 50.000000 50.000000"
 preserveAspectRatio="xMidYMid meet">

<g transform="translate(0.000000,50.000000) scale(0.100000,-0.100000)"
fill="#000000" stroke="none">
<path d="M247 486 c-45 -16 -73 -39 -98 -81 -10 -16 -36 -41 -56 -55 -105 -71
-121 -205 -34 -291 85 -86 221 -71 289 31 12 19 40 46 60 60 104 72 119 205
33 291 -34 35 -92 59 -136 59 -11 -1 -37 -7 -58 -14z m148 -29 c78 -44 107
-145 65 -227 -18 -35 -53 -70 -71 -70 -4 0 -9 17 -11 37 -4 29 0 41 16 54 17
14 18 19 7 33 -8 9 -21 14 -30 11 -10 -3 -33 11 -59 36 -37 35 -50 42 -94 45
-29 3 -54 6 -56 9 -10 10 31 56 66 74 50 27 117 26 167 -2z m-120 -120 c112
-63 112 -231 0 -294 -114 -64 -255 17 -255 147 0 130 141 211 255 147z"/>
<path d="M304 395 c-4 -9 -2 -21 3 -26 14 -14 45 1 41 20 -4 22 -37 26 -44 6z"/>
<path d="M386 351 c-4 -5 -2 -12 3 -15 5 -4 12 -2 15 3 4 5 2 12 -3 15 -5 4
-12 2 -15 -3z"/>
<path d="M110 234 c-11 -12 -10 -18 3 -32 16 -15 18 -15 34 0 13 14 14 20 3
32 -7 9 -16 16 -20 16 -4 0 -13 -7 -20 -16z"/>
<path d="M216 241 c-4 -5 -2 -12 3 -15 5 -4 12 -2 15 3 4 5 2 12 -3 15 -5 4
-12 2 -15 -3z"/>
<path d="M244 175 c-4 -9 -2 -21 3 -26 14 -14 45 1 41 20 -4 22 -37 26 -44 6z"/>
<path d="M116 141 c-4 -5 -2 -12 3 -15 5 -4 12 -2 15 3 4 5 2 12 -3 15 -5 4
-12 2 -15 -3z"/>
<path d="M196 101 c-4 -5 -2 -12 3 -15 5 -4 12 -2 15 3 4 5 2 12 -3 15 -5 4
-12 2 -15 -3z"/>
</g>
</svg>
