<?xml version="1.0" standalone="no"?>
<!DOCTYPE svg PUBLIC "-//W3C//DTD SVG 20010904//EN"
 "http://www.w3.org/TR/2001/REC-SVG-20010904/DTD/svg10.dtd">
<svg version="1.0" xmlns="http://www.w3.org/2000/svg"
 width="454.000000pt" height="408.000000pt" viewBox="0 0 454.000000 408.000000"
 preserveAspectRatio="xMidYMid meet">

<g transform="translate(0.000000,408.000000) scale(0.100000,-0.100000)"
fill="#000000" stroke="none">
<path d="M1110 3920 c0 -8 -122 -11 -442 -9 l-443 1 0 -232 0 -231 454 0 454
0 36 32 c75 66 211 200 211 209 0 4 -50 53 -112 107 -144 126 -158 137 -158
123z m-73 -150 c8 -25 20 -58 28 -75 7 -16 19 -48 26 -70 7 -22 16 -44 20 -49
12 -14 -1 -36 -21 -36 -22 0 -36 17 -45 53 -7 25 -11 27 -55 27 -46 0 -48 -1
-64 -40 -19 -47 -56 -58 -56 -16 0 14 5 28 10 31 6 3 10 15 10 26 0 10 4 27 9
37 5 9 22 50 38 90 26 69 30 73 57 70 24 -3 30 -10 43 -48z"/>
<path d="M977 3716 c-22 -49 -22 -46 13 -46 30 0 37 8 21 26 -5 5 -11 20 -13
34 -4 23 -5 22 -21 -14z"/>
<path d="M32 3862 l-32 -27 0 -1827 0 -1828 40 0 40 0 0 1855 c0 1020 -3 1855
-7 1855 -5 0 -23 -13 -41 -28z"/>
<path d="M230 3363 c0 -5 300 -7 666 -6 545 2 669 0 678 -10 6 -8 33 -31 59
-52 27 -21 46 -44 43 -51 -3 -8 0 -11 10 -7 9 3 26 -4 40 -18 13 -13 35 -35
49 -49 29 -29 33 -52 8 -43 -14 5 -15 3 -7 -6 9 -10 16 -10 33 1 25 15 27 28
4 28 -9 0 -14 3 -10 6 3 3 -18 27 -46 52 -29 25 -57 51 -63 56 -12 11 -86 72
-113 93 -12 9 -175 12 -683 13 -368 0 -668 -3 -668 -7z"/>
<path d="M232 3128 l-2 -218 670 0 c369 0 672 0 675 0 3 0 6 3 8 6 1 4 -289 6
-645 5 -355 -1 -658 1 -672 5 l-26 6 -3 207 -2 206 -3 -217z"/>
<path d="M1330 3290 c-10 -7 10 -10 67 -10 45 0 85 -4 88 -10 8 -12 25 -13 25
-1 0 25 -147 43 -180 21z"/>
<path d="M1286 3262 c-8 -14 -4 -249 5 -263 5 -8 9 43 9 129 0 134 -2 153 -14
134z"/>
<path d="M1520 3236 c0 -8 4 -17 9 -21 6 -3 9 4 8 15 -1 23 -17 28 -17 6z"/>
<path d="M1370 3195 c0 -23 4 -25 45 -25 41 0 45 2 45 25 0 23 -4 25 -45 25
-41 0 -45 -2 -45 -25z m58 -2 c-10 -2 -26 -2 -35 0 -10 3 -2 5 17 5 19 0 27
-2 18 -5z"/>
<path d="M1523 3155 c0 -14 3 -25 8 -25 5 0 9 11 9 25 0 14 -4 25 -9 25 -5 0
-8 -11 -8 -25z"/>
<path d="M1547 3113 c-11 -10 -8 -83 3 -83 6 0 10 20 10 45 0 46 -2 50 -13 38z"/>
<path d="M1370 3076 c0 -35 1 -36 41 -36 86 0 91 62 5 68 l-46 3 0 -35z m88
-3 c-2 -13 -13 -18 -38 -18 -25 0 -36 5 -38 18 -3 14 4 17 38 17 34 0 41 -3
38 -17z"/>
<path d="M1760 3089 c0 -5 5 -7 10 -4 6 3 10 8 10 11 0 2 -4 4 -10 4 -5 0 -10
-5 -10 -11z"/>
<path d="M1695 3035 c-22 -24 -46 -44 -53 -44 -7 -1 -11 -5 -8 -9 3 -5 -6 -15
-19 -22 -24 -13 -34 -30 -17 -30 10 0 152 135 152 144 0 15 -18 2 -55 -39z"/>
<path d="M1520 3010 c0 -5 5 -10 10 -10 6 0 10 5 10 10 0 6 -4 10 -10 10 -5 0
-10 -4 -10 -10z"/>
<path d="M1485 2990 c-3 -5 3 -10 15 -10 12 0 18 5 15 10 -3 6 -10 10 -15 10
-5 0 -12 -4 -15 -10z"/>
<path d="M1320 2968 c0 -5 32 -8 70 -8 39 0 70 4 70 9 0 4 -31 8 -70 7 -38 0
-70 -4 -70 -8z"/>
<path d="M220 420 l0 -240 1773 0 1772 1 130 124 130 124 -61 55 c-34 31 -94
83 -134 116 l-72 60 -1769 0 -1769 0 0 -240z m3453 119 c41 -34 50 -69 16 -69
-12 0 -30 11 -41 25 -24 30 -75 34 -108 7 -29 -23 -37 -87 -17 -134 13 -30 22
-38 51 -44 42 -7 86 15 86 46 0 15 -8 19 -37 22 -30 2 -38 7 -38 23 0 18 8 20
63 23 l62 3 0 -81 c0 -78 -5 -91 -27 -69 -8 8 -17 8 -31 0 -11 -6 -43 -11 -70
-11 -75 0 -122 52 -122 136 0 128 121 199 213 123z"/>
</g>
</svg>
