<?xml version="1.0" standalone="no"?>
<!DOCTYPE svg PUBLIC "-//W3C//DTD SVG 20010904//EN"
 "http://www.w3.org/TR/2001/REC-SVG-20010904/DTD/svg10.dtd">
<svg version="1.0" xmlns="http://www.w3.org/2000/svg"
 width="1024.000000pt" height="1024.000000pt" viewBox="0 0 1024.000000 1024.000000"
 preserveAspectRatio="xMidYMid meet">

<g transform="translate(0.000000,1024.000000) scale(0.100000,-0.100000)"
fill="#000000" stroke="none">
<path d="M3345 8859 c-207 -27 -443 -109 -622 -215 -396 -234 -682 -638 -758
-1068 -19 -114 -20 -338 0 -431 8 -38 15 -73 15 -76 0 -4 -22 -21 -49 -38
-154 -99 -245 -265 -257 -471 -13 -204 68 -398 210 -506 123 -94 301 -111 341
-33 13 25 15 98 13 518 l-3 489 -22 24 c-22 23 -23 32 -23 194 0 297 58 513
195 726 228 354 591 580 1007 629 125 14 349 7 472 -15 398 -73 776 -355 960
-716 98 -192 142 -378 153 -635 l5 -150 -26 -24 -26 -24 0 -504 0 -503 29 -32
c26 -29 35 -33 80 -33 28 0 51 -2 51 -6 0 -18 -66 -103 -119 -152 -136 -125
-292 -214 -504 -286 -166 -57 -299 -80 -527 -92 -107 -6 -205 -14 -218 -19
-54 -23 -44 -122 14 -136 35 -9 337 3 429 16 362 53 712 216 926 430 93 94
140 167 163 251 12 45 26 66 84 125 117 118 165 241 164 420 -1 225 -100 414
-273 520 l-57 34 16 67 c24 110 21 354 -7 483 -41 191 -124 381 -235 539 -210
298 -496 511 -836 625 -187 62 -282 78 -500 81 -107 2 -226 -1 -265 -6z"/>
<path d="M7209 8605 c-159 -26 -355 -88 -489 -155 -92 -46 -260 -162 -351
-243 -451 -396 -650 -1052 -498 -1642 50 -194 142 -403 245 -555 31 -47 57
-89 57 -95 0 -5 -46 -98 -102 -205 -57 -107 -128 -242 -159 -300 -30 -58 -92
-170 -137 -250 -107 -189 -117 -209 -110 -220 10 -17 28 -11 100 31 63 37 402
229 788 446 81 46 154 83 161 83 7 0 42 -13 77 -29 204 -92 517 -150 734 -136
443 30 811 198 1112 508 266 274 411 607 444 1017 26 328 -66 693 -249 987
-232 375 -618 647 -1055 744 -121 27 -439 35 -568 14z m381 -438 c57 -20 70
-58 70 -213 0 -89 4 -135 13 -146 13 -16 171 -78 199 -78 9 0 61 41 115 91
153 142 161 143 290 17 163 -159 163 -170 13 -322 l-109 -112 24 -64 c14 -36
33 -81 43 -100 l17 -35 150 -5 c95 -3 158 -10 172 -18 44 -25 53 -61 53 -206
l0 -136 -29 -32 -29 -33 -156 0 c-86 -1 -160 -5 -165 -10 -11 -11 -71 -173
-71 -190 0 -7 45 -57 99 -111 101 -101 119 -131 106 -181 -7 -31 -175 -207
-218 -230 -45 -23 -76 -8 -167 78 -123 116 -120 115 -171 88 -24 -12 -68 -30
-97 -40 -84 -29 -82 -24 -82 -176 0 -142 -10 -181 -49 -203 -11 -5 -84 -10
-163 -10 -206 0 -210 5 -218 215 -6 160 10 136 -134 199 -57 25 -85 32 -97 26
-9 -5 -52 -43 -95 -83 -158 -147 -162 -146 -329 32 l-87 93 5 45 c4 42 13 54
111 152 l105 106 -18 40 c-10 22 -26 64 -35 93 -23 70 -39 75 -186 67 -136 -7
-167 0 -197 45 -21 30 -23 45 -23 162 0 133 8 167 46 199 12 10 58 15 173 19
l156 5 17 35 c10 19 29 64 43 100 l25 65 -110 106 c-104 101 -110 108 -110
147 0 32 8 50 39 89 58 73 165 171 195 179 45 11 70 -3 170 -96 54 -49 105
-94 114 -99 12 -6 45 2 107 26 50 19 96 40 103 45 8 7 12 50 12 147 0 213 16
230 215 230 61 0 126 -5 145 -12z"/>
<path d="M7306 7524 c-81 -20 -165 -67 -239 -134 -117 -108 -180 -251 -180
-410 0 -173 50 -297 168 -416 175 -176 425 -214 647 -97 122 64 234 200 276
333 25 81 24 275 -3 355 -41 127 -164 269 -287 331 -101 51 -261 67 -382 38z"/>
<path d="M3376 8249 c-122 -10 -184 -22 -311 -61 -185 -56 -308 -130 -431
-260 -244 -257 -313 -607 -198 -999 71 -240 77 -283 55 -427 -37 -255 78 -711
267 -1057 61 -111 161 -259 224 -330 233 -265 512 -359 799 -269 135 42 281
136 348 223 l26 34 -65 -6 c-36 -4 -133 -10 -215 -13 -138 -6 -155 -5 -197 14
-177 78 -228 301 -97 431 62 62 105 74 292 82 195 9 286 21 420 56 83 21 225
67 233 76 1 1 23 56 47 122 59 159 97 315 97 402 l0 69 -77 80 c-121 125 -207
160 -558 224 -267 49 -440 97 -603 169 l-87 39 -13 -24 c-33 -62 -76 -58 -230
21 -292 148 -467 355 -538 635 -26 104 -7 168 55 191 31 12 82 -4 99 -32 8
-12 18 -48 23 -82 34 -210 171 -394 385 -515 l69 -40 10 37 c8 27 20 41 47 54
33 16 40 17 72 3 20 -8 39 -22 42 -31 7 -16 122 -79 217 -116 100 -41 254 -80
522 -135 348 -70 403 -89 518 -170 l47 -34 0 63 c0 39 13 116 35 201 47 190
59 280 52 405 -13 211 -71 359 -208 526 -251 306 -715 482 -1173 444z"/>
<path d="M2695 4926 c-18 -19 -35 -50 -39 -68 -15 -78 179 -1047 217 -1085 13
-14 28 7 133 183 65 110 162 273 217 364 115 190 119 159 -35 250 -77 45 -122
84 -260 222 -92 93 -175 168 -184 168 -9 0 -31 -15 -49 -34z"/>
<path d="M4360 4908 c-149 -174 -307 -310 -447 -388 -24 -13 -43 -31 -43 -40
0 -9 48 -97 108 -196 59 -98 151 -254 206 -346 54 -92 105 -169 113 -172 23
-9 37 39 102 352 74 352 121 627 121 701 0 78 -43 141 -96 141 -10 0 -39 -24
-64 -52z"/>
<path d="M2220 4807 c-342 -135 -556 -265 -744 -452 -138 -138 -234 -299 -288
-480 l-23 -80 0 -765 0 -765 32 -67 c38 -81 97 -142 172 -177 l56 -26 828 -3
c738 -2 828 -1 833 13 7 18 -3 49 -91 265 -269 663 -531 1746 -586 2417 -11
143 -17 166 -40 170 -8 2 -75 -21 -149 -50z"/>
<path d="M4793 4848 c-6 -7 -14 -51 -18 -98 -56 -712 -325 -1851 -585 -2480
-29 -69 -63 -153 -77 -187 -14 -34 -23 -69 -20 -77 6 -14 87 -16 810 -16 611
0 806 3 815 12 8 8 12 50 12 122 l0 111 -63 34 c-172 94 -286 233 -343 416
-14 46 -19 92 -19 200 0 128 3 147 28 220 38 108 86 183 174 274 l74 76 -31
80 c-37 94 -60 203 -60 285 0 155 63 324 165 444 l57 68 -28 30 c-48 50 -193
161 -300 231 -121 78 -260 149 -414 210 -142 57 -163 62 -177 45z"/>
<path d="M7317 4789 c-48 -14 -98 -79 -128 -167 -11 -34 -28 -66 -37 -71 -10
-5 -52 -14 -95 -21 -90 -13 -84 -16 -187 75 -82 72 -114 88 -170 89 -75 0
-221 -83 -261 -148 -16 -26 -19 -50 -19 -142 l0 -111 -47 -46 c-95 -91 -91
-89 -215 -88 -101 2 -116 -1 -164 -24 -39 -19 -62 -39 -88 -80 -59 -88 -106
-195 -106 -240 0 -46 9 -61 98 -164 74 -84 72 -61 21 -278 l-33 -141 -95 -37
c-174 -68 -196 -99 -193 -274 3 -218 38 -267 226 -325 39 -11 79 -26 88 -31 9
-6 42 -66 74 -135 72 -157 74 -179 16 -276 -65 -109 -56 -172 44 -304 46 -61
84 -83 175 -100 116 -21 157 -61 179 -173 17 -87 44 -130 113 -178 58 -41 142
-79 174 -79 32 0 99 40 183 110 94 78 98 79 221 58 l70 -11 42 -81 c81 -156
107 -171 292 -164 190 7 220 28 279 189 45 125 49 129 170 177 59 23 117 42
129 42 13 0 63 -18 112 -40 109 -48 150 -50 226 -13 67 34 220 179 244 232 21
49 13 94 -41 210 -19 40 -34 82 -34 92 0 10 28 69 62 131 116 213 102 196 166
214 227 63 251 95 254 339 2 154 -24 195 -159 256 -34 16 -64 37 -67 46 -8 30
-46 251 -46 272 0 10 32 59 70 107 94 120 99 134 66 237 -46 149 -106 210
-220 223 -66 8 -97 29 -136 91 -28 43 -28 46 -23 161 7 135 -1 159 -70 223
-51 48 -146 99 -185 99 -41 0 -101 -23 -173 -65 -33 -19 -70 -35 -82 -35 -19
0 -214 64 -224 73 -2 2 -16 42 -32 89 -61 181 -95 205 -297 213 -78 2 -144 0
-167 -6z m315 -652 c168 -44 332 -132 476 -256 270 -232 420 -627 383 -1003
-28 -271 -130 -501 -306 -686 -111 -117 -189 -177 -313 -240 -244 -125 -575
-146 -862 -57 -233 73 -468 249 -603 452 -402 605 -196 1394 448 1709 185 90
305 115 530 109 119 -3 170 -8 247 -28z"/>
<path d="M7275 3947 c-34 -34 -38 -50 -50 -177 l-6 -65 -77 -28 c-42 -15 -111
-48 -152 -75 l-74 -48 -106 55 c-85 44 -111 53 -133 47 -37 -9 -91 -67 -123
-132 -23 -48 -24 -54 -11 -85 15 -36 64 -85 135 -134 47 -33 46 -26 18 -150
-22 -98 -21 -244 3 -330 11 -39 17 -73 13 -76 -4 -3 -37 -29 -74 -58 -82 -64
-108 -95 -108 -130 0 -40 46 -126 87 -162 47 -41 81 -37 209 26 l95 46 52 -34
c62 -41 158 -90 208 -106 42 -14 49 -29 49 -116 0 -79 14 -126 46 -156 21 -20
38 -24 98 -27 82 -4 131 12 155 50 8 13 17 66 21 125 3 56 8 104 11 106 10 8
257 127 262 127 3 0 23 -12 44 -26 61 -42 150 -84 178 -84 52 0 165 130 165
190 0 36 -46 90 -131 156 l-57 44 18 59 c32 100 42 209 30 308 -6 48 -13 95
-15 103 -3 11 19 33 68 68 122 87 141 133 91 217 -36 63 -88 105 -127 105 -18
0 -70 -13 -116 -29 l-85 -28 -70 53 c-39 30 -105 68 -146 84 -111 45 -104 38
-111 126 -9 114 -17 140 -51 169 -26 22 -38 25 -115 25 -83 0 -86 -1 -118 -33z
m293 -532 c179 -89 277 -276 244 -467 -40 -233 -218 -377 -451 -366 -113 5
-198 43 -280 125 -240 241 -150 619 174 736 39 14 71 17 143 14 83 -4 101 -8
170 -42z"/>
<path d="M3494 4324 c-64 -23 -117 -75 -148 -145 -38 -84 -34 -148 16 -244 20
-39 41 -89 47 -112 l12 -43 163 0 164 0 10 43 c6 24 30 75 53 115 36 62 41 79
41 131 0 76 -29 139 -90 197 -72 70 -174 91 -268 58z"/>
<path d="M3405 3518 c-3 -40 -24 -239 -45 -443 -52 -499 -65 -648 -57 -668 6
-15 32 -17 276 -17 308 0 306 0 296 74 -3 22 -19 172 -36 331 -16 160 -41 397
-54 528 -14 131 -25 245 -25 253 0 12 -29 14 -174 14 l-174 0 -7 -72z"/>
<path d="M3286 2214 c-4 -9 -9 -56 -13 -103 -9 -129 -30 -121 312 -121 l285 0
15 24 c13 19 15 40 10 98 -3 40 -8 83 -11 96 l-4 22 -294 0 c-263 0 -295 -2
-300 -16z"/>
</g>
</svg>
