<?xml version="1.0" standalone="no"?>
<!DOCTYPE svg PUBLIC "-//W3C//DTD SVG 20010904//EN"
 "http://www.w3.org/TR/2001/REC-SVG-20010904/DTD/svg10.dtd">
<svg version="1.0" xmlns="http://www.w3.org/2000/svg"
 width="1024.000000pt" height="1024.000000pt" viewBox="0 0 1024.000000 1024.000000"
 preserveAspectRatio="xMidYMid meet">

<g transform="translate(0.000000,1024.000000) scale(0.100000,-0.100000)"
fill="#000000" stroke="none">
<path d="M0 8953 c1 -880 4 -1282 11 -1270 12 20 40 22 57 5 19 -19 14 -37
-13 -50 -14 -6 -25 -14 -25 -17 0 -11 193 -72 200 -64 3 4 53 70 111 146 57
76 117 154 132 175 36 47 40 48 80 24 27 -16 35 -17 45 -5 21 22 51 16 58 -12
3 -14 10 -22 15 -19 5 3 32 40 61 82 28 42 52 78 53 80 4 5 171 -91 193 -111
15 -14 22 -32 22 -60 0 -46 -27 -144 -42 -153 -7 -4 -7 0 0 12 13 26 24 166
14 181 -4 6 -46 31 -92 54 l-85 41 -20 -27 c-79 -110 -95 -125 -129 -125 -18
0 -39 7 -46 15 -9 11 -16 12 -31 2 -14 -9 -26 -9 -48 -1 -28 11 -30 10 -100
-80 -39 -50 -98 -128 -131 -174 -60 -82 -60 -82 -88 -69 -15 8 -56 24 -92 37
-36 13 -75 32 -87 43 l-23 20 0 -256 c0 -141 2 -257 5 -257 5 0 153 79 415
220 69 37 163 87 210 112 176 93 381 205 556 304 100 56 190 105 201 108 15 5
18 13 15 35 -6 41 15 48 47 16 26 -24 30 -25 45 -10 20 21 21 61 0 69 -55 21
-124 -7 -124 -50 0 -14 -4 -22 -10 -19 -5 3 -10 19 -10 35 0 39 32 60 91 60
58 0 76 -7 90 -31 14 -27 -16 -75 -55 -89 -89 -33 -168 -73 -371 -187 -38 -22
-113 -63 -165 -93 -52 -29 -109 -64 -127 -77 -18 -14 -48 -31 -65 -37 -18 -6
-105 -50 -193 -98 -88 -47 -248 -133 -355 -190 l-195 -103 -3 -642 -2 -642 32
-5 c18 -3 64 -8 103 -11 66 -6 95 -17 95 -37 0 -5 -5 -6 -10 -3 -9 5 -181 33
-212 35 -5 0 -8 -62 -8 -137 0 -128 2 -138 22 -162 l23 -26 -22 19 -23 19 0
-152 0 -153 36 21 c39 23 44 25 44 14 0 -5 -18 -21 -40 -37 -22 -17 -40 -36
-40 -43 0 -19 7 -17 64 20 60 40 83 49 91 37 7 -11 -31 -40 -99 -76 -53 -27
-70 -44 -45 -44 6 0 41 14 79 30 38 16 71 30 75 30 20 0 -16 -25 -86 -60 -59
-30 -79 -45 -79 -60 0 -19 2 -20 36 -5 37 15 85 47 118 77 11 10 22 15 25 12
3 -3 -2 -11 -12 -18 -28 -21 -20 -26 18 -10 19 8 35 11 35 7 0 -5 -50 -32
-110 -60 -68 -33 -110 -59 -110 -68 0 -21 30 -19 65 6 26 18 211 109 221 109
2 0 4 -6 4 -13 0 -13 -137 -85 -202 -106 -20 -7 -42 -19 -48 -27 -7 -7 -19
-14 -26 -14 -8 0 -14 -10 -14 -25 0 -17 4 -23 15 -19 8 4 12 11 9 16 -4 6 -1
9 6 6 24 -8 21 -25 -5 -32 -19 -5 -25 -13 -25 -32 0 -25 1 -26 23 -12 12 8 33
21 47 29 14 8 38 24 54 37 16 13 35 21 42 18 7 -3 14 1 17 7 5 12 67 52 67 43
0 -12 -66 -66 -77 -62 -6 3 -14 -2 -17 -10 -3 -8 -12 -14 -20 -14 -8 0 -16 -4
-18 -8 -1 -5 -29 -27 -60 -50 l-57 -42 0 -150 c-1 -82 2 -150 5 -150 4 0 79
40 168 89 88 49 293 157 454 241 161 83 327 172 370 196 86 49 112 53 161 23
44 -27 209 -191 196 -196 -6 -1 -50 36 -100 83 -49 47 -103 92 -120 99 -36 16
-58 8 -175 -59 -41 -24 -228 -122 -415 -218 -357 -184 -517 -271 -535 -293 -7
-8 -10 -57 -8 -134 l3 -121 58 79 c63 86 104 128 113 118 3 -3 -13 -25 -35
-49 -23 -24 -64 -75 -91 -115 -41 -59 -50 -79 -50 -115 l0 -43 19 25 19 24 40
-43 40 -43 41 71 c71 121 193 227 358 309 69 35 233 92 262 92 16 0 21 6 21
29 0 15 -5 42 -11 59 -10 28 -14 31 -42 25 -59 -11 -235 -71 -313 -107 -80
-37 -94 -42 -94 -28 0 9 231 113 290 130 102 31 256 52 378 51 140 -1 238 -16
120 -18 -54 -1 -67 -4 -71 -18 -4 -17 -5 -17 -6 0 -1 13 -10 17 -44 17 -98 0
-199 -13 -204 -27 -3 -7 1 -33 8 -57 l13 -43 136 5 c102 3 164 0 241 -13 138
-22 250 -50 278 -66 18 -12 23 -12 31 1 12 19 13 40 1 40 -8 0 -18 24 -27 65
-6 28 -17 36 -61 46 -21 4 -63 14 -93 23 l-55 15 65 -6 c86 -6 200 -43 335
-108 122 -59 221 -135 450 -350 72 -66 229 -210 350 -318 121 -108 263 -236
316 -284 53 -49 176 -160 275 -248 323 -287 579 -525 566 -525 -14 0 -736 638
-886 783 -21 21 -39 36 -40 35 -1 -2 -7 -14 -14 -28 -15 -30 -14 -30 -202
-135 -80 -45 -282 -160 -450 -257 -168 -96 -381 -217 -475 -268 -93 -51 -219
-120 -280 -153 -247 -135 -315 -167 -351 -167 -79 0 -113 20 -234 135 -137
131 -173 159 -265 209 -58 32 -145 90 -190 128 -6 6 -5 12 3 17 8 5 29 -8 58
-35 26 -23 73 -57 105 -76 125 -70 167 -101 281 -208 133 -125 185 -156 252
-146 24 4 95 36 162 73 65 36 220 121 344 188 276 149 365 200 790 444 184
107 354 204 377 217 47 27 67 55 58 83 -3 10 -130 128 -283 262 -152 134 -308
275 -347 314 -95 95 -232 206 -314 255 -62 37 -208 100 -231 100 -5 0 -1 -15
9 -32 11 -20 25 -32 35 -30 23 4 20 -30 -4 -46 -23 -14 -27 -42 -6 -42 26 0
198 -124 251 -182 l54 -58 55 28 c31 15 53 32 51 40 -9 27 15 9 48 -35 59 -81
106 -184 130 -280 l22 -93 46 0 c31 0 55 -6 70 -19 22 -17 22 -21 9 -46 -10
-19 -20 -25 -36 -22 -40 7 -63 -23 -89 -121 -14 -50 -34 -111 -46 -135 -27
-53 -114 -179 -139 -202 -29 -26 -24 -5 6 30 76 87 133 200 165 323 10 42 18
76 17 77 -47 30 -83 47 -105 50 -16 2 -30 4 -33 5 -7 1 43 29 54 30 5 0 3 -7
-4 -15 -9 -11 -9 -15 -1 -15 6 0 16 11 21 25 5 14 13 25 17 25 5 0 14 4 21 9
28 17 -55 240 -131 350 -26 39 -31 42 -42 28 -7 -10 -18 -17 -26 -17 -8 0 -23
-7 -33 -15 -15 -11 -17 -18 -9 -26 16 -16 47 -3 39 16 -3 8 -1 15 3 15 18 0
21 -33 4 -46 -25 -18 -50 -17 -57 2 -4 9 -9 15 -11 12 -3 -2 11 -34 31 -71 37
-70 64 -172 64 -246 0 -98 -56 -251 -121 -330 -16 -20 -29 -39 -29 -42 0 -4
26 -17 58 -30 69 -27 93 -49 80 -72 -14 -25 -138 -122 -226 -176 -220 -135
-488 -211 -749 -211 -132 0 -98 19 39 22 l123 3 6 30 6 30 11 -27 c6 -16 15
-28 19 -28 5 0 60 13 123 29 173 44 341 115 443 187 26 19 50 34 53 34 12 0
126 93 131 107 3 8 0 19 -7 23 -15 9 -40 -10 -34 -25 6 -16 -46 -12 -84 5 -17
8 -30 19 -27 25 3 5 8 18 11 28 8 23 23 22 32 -4 7 -19 9 -19 21 -5 8 10 9 16
3 16 -6 0 -18 7 -26 16 -15 14 -22 10 -80 -43 -79 -72 -175 -130 -286 -172
-98 -37 -230 -71 -279 -71 -32 0 -33 -1 -28 -30 4 -16 2 -32 -2 -35 -5 -2 -12
17 -15 43 -4 26 -9 60 -12 76 -4 19 -3 26 5 22 6 -4 11 -20 11 -37 0 -37 6
-37 154 0 255 65 474 207 570 372 58 98 94 219 66 219 -5 0 -10 5 -10 11 0 6
7 9 15 5 38 -14 -1 180 -58 288 l-35 65 -33 -25 c-37 -27 -70 -34 -50 -10 7 8
28 22 47 31 l35 16 -34 39 c-43 50 -144 127 -228 173 -66 36 -67 36 -84 17
-10 -11 -15 -23 -12 -27 4 -3 7 -4 7 0 0 30 232 -114 295 -182 16 -19 17 -24
5 -31 -24 -16 -34 -12 -71 26 -143 150 -416 254 -663 254 -51 0 -114 -3 -140
-6 -52 -8 -53 -11 -35 -91 l11 -48 147 0 c125 0 157 -3 220 -23 63 -20 76 -21
82 -9 5 8 30 31 56 52 l48 38 -47 -49 c-51 -53 -57 -64 -33 -64 16 0 37 18 72
64 13 16 23 23 23 14 0 -8 -16 -29 -35 -48 -19 -19 -35 -38 -35 -42 0 -4 16
-14 35 -23 64 -31 162 -131 197 -203 29 -58 33 -76 33 -147 0 -93 -20 -156
-75 -236 -39 -58 -164 -153 -188 -144 -7 2 -11 1 -8 -4 6 -9 -12 -18 -114 -52
-75 -26 -246 -35 -369 -19 -76 10 -113 25 -61 25 15 0 26 -3 23 -7 -2 -5 56
-7 129 -7 115 1 125 3 78 10 -30 5 -71 10 -90 10 -57 2 -7 15 85 23 79 6 196
33 245 55 l25 12 -25 -7 c-174 -43 -196 -46 -330 -41 -128 5 -211 21 -247 49
-15 12 -64 -22 -58 -39 2 -7 -1 -13 -8 -13 -6 0 -37 -26 -69 -57 -55 -54 -57
-58 -41 -75 16 -18 16 -18 0 -12 -9 3 -17 11 -17 17 0 5 -8 3 -18 -6 -10 -10
-22 -17 -26 -17 -4 0 26 34 68 75 42 41 76 80 76 85 0 6 15 24 32 40 18 16 28
30 21 30 -6 0 -14 -4 -18 -10 -7 -11 -15 -5 -108 82 -38 35 -72 72 -77 83 -7
15 -9 16 -9 4 -1 -9 6 -22 14 -29 8 -7 15 -19 15 -26 0 -8 4 -14 10 -14 5 0 7
-7 4 -15 -4 -9 0 -15 10 -15 17 0 35 -29 29 -47 -3 -8 3 -11 16 -8 11 2 22 -3
25 -12 5 -11 2 -14 -11 -9 -10 3 -4 -6 12 -20 l30 -26 -30 15 c-56 28 -150
129 -180 192 -25 51 -29 72 -29 145 0 72 4 94 28 142 67 140 208 243 401 292
28 8 50 17 50 22 -1 5 -5 35 -9 66 -8 55 -10 58 -36 58 -46 0 -208 -57 -303
-108 -63 -33 -113 -69 -167 -122 -85 -82 -118 -129 -144 -205 -16 -44 -35
-195 -37 -280 l0 -30 -10 30 c-5 17 -9 59 -10 95 -6 248 131 448 398 583 61
31 213 77 254 77 19 0 29 5 29 14 0 25 -13 25 -87 5 -316 -84 -558 -287 -618
-519 -28 -104 -7 -330 30 -330 8 0 11 -7 8 -19 -3 -12 13 -40 48 -82 89 -109
158 -168 244 -209 228 -109 332 -139 517 -149 69 -3 130 -10 135 -15 14 -15
-236 2 -327 23 -47 10 -112 31 -145 46 -33 15 -85 36 -115 47 -124 48 -213
115 -315 242 -76 95 -76 95 -161 60 l-34 -14 0 -118 0 -118 58 -55 c88 -85
153 -139 169 -139 22 0 27 29 8 50 -10 11 -15 20 -12 20 6 0 57 -21 66 -26 2
-2 -13 -19 -32 -39 l-36 -37 -38 34 c-21 18 -70 64 -110 102 l-73 69 0 -1641
0 -1642 5120 0 5120 0 0 1343 0 1343 -86 75 c-116 99 -155 129 -170 129 -11 0
-69 -35 -359 -215 -277 -173 -717 -441 -1030 -628 -192 -115 -372 -222 -398
-238 -27 -16 -53 -26 -59 -23 -6 4 21 23 58 43 38 20 87 48 109 63 22 14 119
72 215 129 188 110 477 284 655 394 61 38 189 116 285 175 96 59 252 155 347
213 94 59 177 107 184 107 14 0 95 -67 187 -154 l62 -59 -4 629 c-2 346 -4
636 -4 644 -1 8 1 57 4 108 3 50 3 92 0 92 -3 0 -20 -9 -38 -20 -46 -28 -122
-27 -179 3 -24 12 -127 92 -229 177 -103 85 -259 216 -349 290 -90 74 -238
198 -330 275 -91 77 -180 152 -197 165 -48 38 -282 234 -537 450 -248 210
-287 242 -477 395 -69 55 -181 147 -250 204 -320 264 -507 421 -532 444 -15
14 -42 27 -60 29 -28 2 -34 8 -36 31 -6 52 74 50 84 -2 7 -32 52 -74 239 -226
61 -49 161 -132 224 -185 63 -52 178 -147 255 -210 157 -127 346 -284 560
-463 1428 -1197 1593 -1333 1640 -1359 47 -26 135 -24 177 5 l34 23 0 609 0
610 -65 42 c-100 66 -204 166 -260 251 -56 85 -100 206 -82 224 15 15 34 -33
36 -88 1 -26 5 -40 12 -37 6 2 14 -4 18 -13 4 -9 26 -47 50 -83 52 -77 134
-160 228 -230 l68 -50 0 92 0 92 -61 70 c-84 97 -121 176 -127 270 -8 134 33
219 132 271 l56 29 0 198 c0 147 -3 197 -12 197 -7 0 -29 17 -50 37 -32 31
-41 35 -48 23 -5 -8 -12 -11 -16 -7 -10 10 35 47 57 47 10 0 21 -4 24 -10 3
-6 11 -10 17 -10 6 0 3 9 -7 20 -10 11 -15 23 -11 28 4 4 16 -3 26 -16 18 -22
19 -13 20 428 0 359 -2 450 -12 449 -7 0 -60 -10 -118 -22 l-105 -22 -5 -85
-5 -85 -8 83 c-8 79 -9 83 -30 76 -12 -4 -44 -13 -72 -21 -27 -8 -59 -17 -69
-20 -19 -6 -19 -6 0 20 10 15 26 26 34 27 13 0 13 -2 0 -11 -13 -10 -13 -10 0
-6 8 2 41 10 73 17 l57 13 0 53 c0 29 -4 55 -9 58 -5 3 -39 -17 -76 -45 -37
-28 -71 -47 -74 -42 -3 4 -5 7 -2 6 4 -3 56 38 121 96 25 23 48 41 53 41 4 0
7 -34 7 -75 0 -55 3 -75 13 -75 18 0 120 18 180 31 l47 11 0 1289 0 1289
-5120 0 -5120 0 0 -1287z m5171 612 c-3 -276 -2 -286 17 -303 20 -18 20 -18 1
-42 -17 -22 -19 -44 -19 -207 0 -101 4 -183 9 -183 5 0 28 7 51 15 62 22 60
12 -2 -12 -65 -25 -76 -58 -32 -95 94 -79 91 -75 69 -95 -11 -10 -35 -25 -53
-32 -50 -21 -63 -59 -33 -95 14 -17 115 -86 126 -86 3 0 5 142 3 315 -3 345
-4 341 54 331 35 -7 131 -72 139 -94 3 -10 5 -38 5 -64 -1 -36 3 -48 14 -48
40 1 42 10 40 216 -3 323 -7 298 40 319 l39 18 68 -49 68 -50 9 -67 c6 -46 13
-67 23 -67 8 0 43 -21 78 -47 57 -43 64 -51 61 -78 -2 -16 -5 -156 -7 -310 -1
-172 -5 -246 -8 -193 -5 71 -10 90 -26 101 -10 8 -24 13 -31 10 -7 -2 -16 11
-21 34 -7 29 -11 -12 -19 -185 -7 -166 -6 -222 2 -222 7 0 36 16 65 35 40 28
61 35 88 33 l36 -3 -75 -40 c-120 -64 -125 -65 -149 -49 -21 15 -21 22 -21
311 0 240 -2 294 -12 280 -12 -16 -15 -15 -41 9 -28 26 -28 26 -34 5 -3 -11
-9 -19 -13 -16 -16 10 -4 -60 13 -77 15 -15 17 -38 17 -162 0 -92 -4 -147 -11
-151 -6 -4 -12 -5 -14 -3 -2 2 -5 69 -7 149 l-3 145 -46 -19 -47 -20 -6 -86
c-3 -47 -7 -159 -8 -248 -1 -153 -6 -180 -25 -150 -4 6 -17 17 -28 23 -24 14
-22 -9 -24 249 l-1 215 -25 -4 c-20 -4 -25 -1 -25 17 0 16 -3 18 -9 9 -7 -11
-10 -10 -15 3 -3 9 -7 26 -8 38 0 12 -6 -79 -12 -203 -12 -249 -12 -252 48
-269 17 -4 30 -13 29 -19 -3 -14 120 -122 139 -122 8 0 35 13 60 29 50 32 88
47 88 34 0 -8 -62 -49 -118 -78 -29 -14 -36 -14 -50 -3 -128 107 -181 150
-233 188 -189 138 -232 170 -292 224 -37 32 -67 62 -67 67 0 5 36 32 80 61 73
48 80 55 75 78 -4 14 -8 26 -9 28 -2 1 -28 -9 -60 -23 -81 -36 -83 -30 -3 11
l67 34 0 179 c0 147 -3 180 -14 184 -16 6 -12 57 4 67 11 7 18 520 8 520 -10
0 -10 32 -2 54 3 9 11 16 18 16 8 0 10 -76 7 -285z m2194 251 c13 -14 21 -26
19 -29 -2 -2 40 -29 94 -61 53 -32 160 -98 237 -146 77 -49 172 -108 210 -131
39 -24 109 -68 156 -98 48 -31 122 -78 165 -105 44 -27 115 -73 159 -101 44
-28 113 -71 154 -94 40 -24 126 -78 191 -120 65 -42 159 -102 210 -134 50 -33
89 -61 87 -63 -4 -5 -105 56 -352 211 -49 31 -155 97 -235 146 -80 50 -161
101 -180 114 -19 12 -138 87 -265 165 -126 78 -246 153 -265 165 -72 48 -356
228 -370 236 -8 4 -30 14 -47 21 -37 15 -41 23 -15 37 23 14 22 14 47 -13z
m-2489 -211 c4 -8 3 -23 -1 -32 -3 -10 -6 -121 -5 -247 1 -199 3 -231 17 -241
15 -11 15 -15 -1 -45 -13 -27 -16 -66 -16 -210 l0 -177 48 -45 c26 -24 94 -77
152 -118 58 -40 129 -94 158 -118 118 -99 228 -182 239 -182 7 0 13 -4 13 -10
0 -22 -27 -6 -152 93 -71 56 -151 118 -177 137 -96 70 -207 155 -244 186 -23
20 -45 30 -57 27 -12 -3 -22 3 -29 16 -10 17 -8 23 9 33 19 12 20 23 20 175 0
97 -4 164 -10 168 -5 3 -10 19 -10 35 0 16 5 32 10 35 14 9 13 468 -1 482 -8
8 -8 17 0 32 14 25 29 27 37 6z m2360 -32 c28 -18 129 -133 155 -177 11 -19
29 -63 39 -96 15 -50 16 -60 4 -60 -8 0 -14 6 -14 14 0 38 -55 158 -101 218
-52 70 -73 84 -134 87 -18 1 -25 7 -25 21 0 17 4 19 28 14 15 -4 36 -13 48
-21z m-502 -97 c19 -55 30 -94 24 -88 -7 7 -16 12 -20 12 -4 0 -8 -360 -8
-801 0 -636 -3 -800 -12 -797 -10 4 -14 176 -19 799 -3 437 -6 796 -7 798 -1
2 -13 0 -27 -3 -14 -4 -25 -4 -25 -1 0 11 54 185 56 182 1 -1 19 -47 38 -101z
m416 94 c0 -5 -6 -10 -14 -10 -25 0 -73 -66 -86 -118 -9 -38 -9 -68 -1 -119
17 -109 29 -140 54 -147 l22 -6 -25 -13 c-23 -12 -26 -11 -37 16 -25 57 -46
189 -39 249 6 63 36 131 63 147 23 13 63 14 63 1z m96 -82 c45 -41 72 -78 57
-78 -17 1 -135 120 -119 120 9 0 37 -19 62 -42z m-1158 -53 c32 -24 65 -52 73
-61 11 -13 15 -68 17 -238 3 -197 -7 -412 -16 -346 -3 25 -42 61 -42 40 0 -15
-26 -12 -43 4 -12 12 -15 -14 -21 -196 -4 -116 -4 -213 -1 -216 9 -9 56 11
113 49 51 33 51 33 31 52 -38 35 -11 29 38 -8 35 -28 41 -36 24 -32 -16 4 -34
-2 -55 -18 -46 -35 -175 -95 -169 -79 3 9 -2 14 -15 14 -11 0 -24 6 -30 13 -8
9 -13 184 -18 528 l-7 515 24 11 c34 16 31 17 97 -32z m1153 -12 l34 -38 -35
30 c-19 16 -39 33 -44 37 -6 5 -6 8 0 8 6 0 26 -17 45 -37z m6 -79 c3 3 -2 15
-12 26 -23 26 -11 26 16 1 21 -20 19 -41 -5 -41 -12 0 -66 51 -66 62 0 4 14
-7 30 -24 17 -17 34 -28 37 -24z m-14 -53 c59 -25 62 -35 5 -15 -24 8 -61 30
-83 50 -36 32 -37 33 -5 10 19 -13 56 -34 83 -45z m-573 -751 c0 -500 -3 -760
-10 -760 -7 0 -10 260 -10 760 0 500 3 760 10 760 7 0 10 -260 10 -760z
m-2901 724 c-18 -22 -110 -74 -132 -74 -10 0 -15 -4 -12 -10 3 -5 19 -10 36
-10 16 0 29 -4 29 -10 0 -5 -7 -7 -15 -4 -25 10 -17 -5 13 -20 15 -8 23 -15
17 -15 -5 0 -39 15 -75 34 -43 23 -58 34 -43 35 12 0 25 5 28 10 3 6 12 10 20
10 8 0 40 16 72 35 64 38 83 44 62 19z m3247 -22 c2 -16 20 -50 47 -90 16 -24
27 -46 24 -49 -3 -2 -11 6 -18 19 -7 12 -28 42 -47 65 -22 28 -32 49 -28 59 6
15 20 12 22 -4z m255 -14 c11 -20 10 -21 -3 -11 -12 11 -18 9 -33 -7 -15 -17
-16 -22 -4 -37 13 -16 12 -17 -4 -4 -14 11 -21 11 -30 2 -9 -9 -9 -14 3 -21 8
-5 11 -10 5 -10 -32 0 -32 18 2 63 19 26 39 47 44 47 4 0 14 -10 20 -22z
m-3136 -34 c44 -20 295 -233 295 -249 0 -15 -27 0 -68 38 -94 87 -224 186
-259 198 -33 11 -41 9 -107 -26 -39 -20 -183 -94 -321 -164 -137 -71 -293
-152 -345 -181 -114 -63 -794 -410 -804 -410 -23 0 23 29 172 106 481 250 760
396 826 434 22 12 114 60 205 106 91 46 200 102 241 124 82 43 115 48 165 24z
m3325 -26 c0 -47 -28 -158 -41 -158 -15 0 -21 22 -11 43 19 40 32 90 32 123 0
19 5 34 10 34 6 0 10 -19 10 -42z m-205 22 c3 -5 2 -10 -4 -10 -5 0 -13 5 -16
10 -3 6 -2 10 4 10 5 0 13 -4 16 -10z m-3716 -44 c14 -16 -7 -78 -30 -91 -8
-5 -11 -5 -7 0 4 4 -6 24 -23 43 l-31 35 23 13 c31 17 54 17 68 0z m1521 4 c0
-15 -42 -50 -62 -50 -21 0 -24 30 -6 48 14 14 68 16 68 2z m4165 -9 c47 -21
115 -94 145 -155 21 -44 27 -120 10 -131 -6 -4 -10 11 -10 37 0 87 -78 197
-164 233 -37 16 -40 16 -65 -3 -54 -39 -31 -145 51 -238 39 -44 104 -76 137
-67 21 5 22 3 16 -17 -5 -16 -4 -20 4 -15 8 4 11 -4 9 -29 -3 -45 -16 -47 -20
-3 -3 28 -8 33 -39 41 -31 8 -43 5 -95 -26 -83 -48 -83 -66 3 -117 37 -22 83
-50 101 -62 l33 -22 -5 24 c-16 80 -16 89 3 89 20 0 36 -36 20 -46 -5 -3 -9
-20 -9 -39 0 -28 6 -37 48 -64 27 -17 52 -31 55 -31 19 0 211 -129 203 -137
-2 -2 -27 12 -55 31 -28 20 -97 61 -153 93 -57 31 -112 64 -123 74 -34 31
-190 119 -193 110 -1 -4 4 -27 11 -50 8 -22 11 -41 7 -41 -4 0 -6 -12 -3 -27
3 -28 3 -28 -7 -4 -8 18 -14 21 -21 14 -8 -8 -7 -20 5 -44 18 -35 22 -119 6
-119 -5 0 -10 23 -10 51 0 28 -4 58 -9 67 -14 26 -17 61 -6 61 15 0 22 41 14
91 -4 30 -3 48 5 52 6 4 7 8 1 8 -5 -1 -68 -31 -140 -68 l-130 -67 0 -80 0
-80 134 -88 c73 -49 131 -91 128 -93 -3 -3 -25 8 -49 26 -45 33 -209 140 -214
140 -2 0 -5 -100 -7 -222 -2 -194 -3 -181 -5 94 l-2 317 128 63 c70 35 128 66
130 70 2 5 12 3 22 -2 13 -7 21 -5 31 6 7 8 32 27 56 41 l44 26 -24 16 c-108
70 -171 236 -116 305 24 31 57 33 114 7z m-2004 -65 c34 -37 44 -53 27 -42
-28 18 -98 98 -98 112 0 4 4 4 8 -1 5 -6 33 -37 63 -69z m-77 27 c19 -36 82
-96 124 -117 21 -11 44 -15 66 -11 25 5 35 3 39 -9 4 -9 12 -16 18 -16 8 0 6
7 -4 18 -20 22 -22 42 -4 42 12 0 22 -15 45 -63 2 -5 -2 -7 -9 -6 -8 2 -28 -1
-45 -5 -37 -8 -80 7 -155 56 -43 28 -109 106 -109 130 0 18 20 6 34 -19z m81
18 c-3 -6 3 -15 14 -20 10 -6 21 -18 25 -27 4 -10 -7 -5 -27 12 -32 27 -38 44
-16 44 6 0 8 -4 4 -9z m76 -5 c8 5 9 3 5 -5 -5 -7 0 -21 11 -33 16 -19 15 -19
-14 2 -18 13 -35 30 -38 38 -4 12 -3 13 9 3 8 -7 21 -9 27 -5z m-3837 -18 c19
-18 24 -29 20 -50 -7 -30 -71 -78 -105 -78 -12 0 -70 -24 -128 -54 -116 -59
-296 -132 -351 -142 -54 -11 -34 0 85 45 146 56 218 89 249 116 57 49 18 40
-64 -15 -30 -20 -64 -39 -75 -43 -19 -7 -19 -6 1 10 12 10 47 38 78 62 31 24
54 46 52 49 -3 3 -31 -16 -62 -42 -58 -47 -92 -62 -58 -25 41 45 141 108 163
102 16 -4 21 -1 21 15 0 12 9 27 21 35 11 8 17 17 12 19 -4 3 -2 3 4 2 7 -2
23 1 35 6 39 15 76 11 102 -12z m4563 -99 c65 -45 136 -98 159 -119 22 -20 66
-53 97 -73 31 -20 57 -39 57 -42 0 -9 -134 76 -162 103 l-28 26 0 -248 c0
-189 3 -250 13 -260 14 -14 108 -79 502 -345 238 -160 349 -240 370 -263 13
-15 4 -9 -97 66 -45 34 -82 54 -89 50 -7 -4 -10 -3 -7 2 6 9 -20 30 -97 81
-161 105 -527 352 -558 376 l-37 29 2 -239 3 -238 105 -78 c112 -82 175 -133
150 -121 -8 4 -42 28 -76 53 -107 81 -187 136 -193 134 -3 -1 -4 27 -3 62 3
47 -1 70 -12 87 l-16 22 0 -24 c0 -15 -3 -20 -8 -13 -4 6 -28 11 -55 11 -41 0
-47 -2 -49 -21 0 -12 -4 -2 -8 23 l-7 45 -1 -42 c-3 -61 -20 -53 -25 10 -2 28
-5 -42 -6 -158 -2 -115 -4 -223 -5 -240 -1 -16 -3 -138 -5 -270 -3 -190 -5
-230 -13 -192 -8 35 -15 47 -28 47 -10 0 -21 8 -25 18 -5 16 -23 25 -90 44 -6
2 -15 -42 -21 -102 l-11 -105 -2 133 c-1 98 -4 132 -13 133 -10 0 -10 2 -1 5
9 4 12 109 12 427 l1 422 -183 121 c-308 206 -367 244 -376 244 -5 0 -8 -30
-7 -66 0 -36 -2 -68 -6 -71 -5 -2 -8 25 -8 61 0 64 -6 76 -25 57 -16 -16 -385
-219 -385 -212 0 3 73 46 163 95 89 50 185 104 213 122 l51 32 84 -52 c129
-80 305 -196 394 -260 l80 -57 3 186 c2 183 2 187 -20 205 l-23 19 23 -6 23
-6 -2 179 -2 179 79 47 c43 27 80 48 81 48 1 0 55 -36 120 -81z m1181 11 c-7
-10 -14 -17 -17 -15 -4 4 18 35 25 35 2 0 -1 -9 -8 -20z m-5369 -29 c17 -16
31 -36 31 -45 0 -15 -86 -66 -92 -55 -2 2 -18 23 -35 46 l-32 41 42 21 c23 12
45 21 48 21 4 0 21 -13 38 -29z m5440 -7 c14 -32 14 -34 -4 -34 -8 0 -15 7
-15 15 0 8 -4 15 -10 15 -5 0 -8 -10 -6 -22 3 -13 5 -27 5 -32 1 -4 10 -6 22
-3 13 3 19 1 16 -6 -2 -7 0 -20 5 -29 6 -13 5 -18 -7 -18 -18 0 -69 78 -67
103 1 25 21 47 36 41 7 -3 18 -16 25 -30z m-5552 -56 l33 -31 -30 -19 c-40
-24 -62 -23 -30 2 23 18 23 20 5 20 -11 0 -29 7 -39 15 -16 12 -17 17 -6 30
18 22 30 19 67 -17z m-512 12 c-3 -5 -12 -10 -18 -10 -7 0 -6 4 3 10 19 12 23
12 15 0z m1331 -27 c15 -21 59 -75 96 -119 37 -45 68 -84 68 -87 0 -3 -22 9
-49 27 -47 32 -184 102 -246 126 l-30 12 30 24 c34 28 75 51 91 53 7 1 24 -16
40 -36z m4594 -54 c9 -15 8 -24 0 -35 -7 -7 -10 -23 -7 -34 3 -11 1 -23 -4
-26 -5 -3 -9 9 -9 26 0 18 -6 33 -15 36 -18 7 -20 40 -2 47 21 9 26 7 37 -14z
m-5690 -4 c11 -13 10 -14 -4 -9 -9 3 -16 10 -16 15 0 13 6 11 20 -6z m5960
-25 c-9 -17 -40 -46 -40 -37 0 2 7 22 16 42 11 28 18 35 24 25 5 -8 5 -21 0
-30z m-5879 -27 c16 -10 29 -22 29 -27 0 -5 -8 -2 -17 6 -10 8 -27 20 -38 26
-11 6 -16 12 -12 12 5 0 22 -8 38 -17z m5126 -225 c95 -62 172 -116 173 -120
0 -5 -53 27 -117 69 -65 42 -173 112 -240 156 -68 44 -123 83 -123 88 0 4 30
-12 68 -36 37 -25 144 -95 239 -157z m-2985 170 c-7 -7 -12 -21 -13 -32 0 -21
0 -21 -9 -1 -6 15 -9 4 -11 -40 -2 -57 -2 -58 -9 -20 -7 39 -7 39 -9 7 -2 -51
-16 -30 -16 24 0 45 2 48 35 60 45 16 46 16 32 2z m-692 -2 c0 -7 -72 -47 -77
-42 -3 2 12 14 34 25 42 22 43 23 43 17z m-2240 -49 c-63 -38 -177 -97 -188
-97 -13 0 45 36 133 82 104 55 135 63 55 15z m1591 -29 c30 -14 95 -58 144
-99 50 -41 185 -154 300 -250 116 -97 280 -233 365 -304 85 -71 214 -179 285
-240 122 -104 223 -189 511 -430 65 -55 166 -140 223 -189 160 -138 567 -483
766 -649 99 -83 239 -201 310 -262 72 -61 186 -158 255 -215 69 -57 168 -140
220 -185 52 -45 159 -133 236 -196 150 -121 467 -386 724 -605 85 -73 212
-179 281 -236 125 -101 218 -180 368 -308 42 -36 117 -100 167 -142 184 -155
165 -236 -86 -377 -63 -36 -185 -106 -270 -156 -85 -51 -182 -106 -215 -124
-33 -18 -114 -64 -180 -103 -66 -38 -221 -128 -345 -200 -124 -71 -257 -148
-297 -171 -39 -23 -120 -69 -178 -102 -58 -33 -170 -98 -248 -144 -78 -46
-182 -106 -232 -133 -49 -27 -187 -105 -305 -174 -216 -126 -330 -188 -330
-180 0 6 138 87 470 276 157 90 328 189 380 220 52 31 187 110 300 175 113 65
246 142 295 170 330 194 448 262 590 342 88 50 201 115 250 144 173 101 220
128 285 163 112 61 173 108 198 153 34 62 18 107 -62 178 -184 163 -237 206
-246 200 -5 -3 -8 0 -5 7 2 7 -44 52 -108 105 -62 51 -125 105 -142 121 -57
53 -104 84 -116 76 -7 -4 -9 -3 -6 3 4 6 0 17 -9 24 -13 10 -17 10 -26 -2 -8
-11 -9 -10 -4 5 4 12 -2 25 -21 40 -31 24 -47 27 -49 9 -1 -7 -2 -17 -3 -22 0
-5 -21 -9 -45 -8 -24 1 -42 5 -39 9 2 5 -1 8 -7 8 -7 0 -9 7 -6 16 5 13 2 15
-14 11 -11 -3 -30 3 -45 15 -15 11 -28 18 -30 16 -7 -7 54 -56 61 -49 4 3 4 1
1 -5 -10 -17 43 -50 53 -34 12 19 32 1 26 -23 -3 -12 0 -28 6 -36 7 -9 -6 0
-27 20 -22 19 -66 54 -97 78 -40 30 -55 47 -51 59 3 11 2 13 -4 5 -6 -8 -12
-8 -25 1 -10 7 -15 16 -12 19 3 3 -4 11 -16 17 -14 7 -19 17 -16 27 6 14 4 14
-11 2 -15 -12 -16 -12 -10 5 6 14 4 17 -5 9 -9 -6 -21 0 -40 19 -14 15 -22 30
-17 34 5 3 7 10 3 15 -3 5 -10 7 -15 3 -5 -3 -6 -10 -3 -16 4 -6 1 -8 -7 -6
-8 3 -13 11 -12 17 2 6 -2 12 -7 12 -20 3 -25 4 -38 13 -7 4 -11 15 -8 23 3 8
1 11 -5 8 -12 -8 -51 24 -43 36 3 5 -1 6 -9 3 -8 -3 -21 3 -28 13 -8 10 -34
34 -59 53 -25 19 -47 37 -50 40 -9 11 -313 264 -365 304 l-50 38 41 -38 c22
-22 78 -70 124 -109 47 -38 135 -113 196 -165 61 -52 194 -165 295 -250 101
-85 201 -171 224 -191 22 -19 90 -75 150 -124 61 -49 155 -127 209 -174 54
-47 160 -137 235 -199 134 -113 164 -142 140 -142 -6 0 -104 -53 -218 -117
-113 -64 -235 -133 -271 -153 -36 -20 -168 -96 -295 -170 -126 -73 -264 -152
-305 -175 -138 -78 -354 -201 -450 -256 -52 -31 -167 -95 -255 -144 -88 -48
-200 -111 -250 -140 -150 -88 -682 -388 -1010 -570 -77 -43 -201 -112 -275
-155 -74 -42 -191 -107 -258 -144 -68 -37 -146 -81 -174 -97 -48 -29 -50 -29
-66 -10 -22 24 -664 599 -912 816 -74 65 -240 213 -369 329 -129 116 -297 267
-375 335 -78 68 -184 163 -236 210 -52 47 -113 102 -135 122 -22 20 -87 78
-145 131 -58 52 -231 206 -385 343 -154 136 -336 298 -405 360 -69 61 -231
206 -360 321 -268 238 -300 266 -390 349 -80 75 -209 189 -315 280 -44 38 -82
72 -85 75 -3 4 -54 51 -115 105 -60 54 -144 130 -185 169 -42 39 -109 100
-150 136 -106 92 -389 351 -428 393 -28 29 -31 35 -17 41 9 3 13 11 9 17 -4 8
-3 9 4 5 6 -4 188 83 404 193 217 110 413 207 436 215 l42 15 52 -55 c29 -31
65 -62 80 -70 39 -20 154 -18 221 5 47 16 632 309 662 331 9 6 180 97 330 173
33 17 71 38 85 47 14 9 93 52 175 95 83 43 159 83 170 90 11 7 83 45 159 85
167 86 198 108 230 166 28 50 24 53 -24 20 -44 -29 -427 -233 -745 -396 -132
-68 -244 -126 -250 -130 -9 -6 -416 -222 -640 -339 -189 -99 -254 -117 -320
-85 -43 20 -276 316 -274 349 0 6 6 2 12 -9 7 -10 39 -53 72 -95 33 -42 82
-106 109 -144 26 -37 57 -74 69 -82 32 -23 118 -19 185 8 49 20 346 173 507
262 28 15 191 101 364 192 172 90 345 181 385 202 39 21 143 75 231 121 275
142 365 203 365 245 0 16 -32 15 -45 -1 -5 -7 -50 -33 -100 -58 -49 -25 -85
-45 -78 -46 6 0 28 10 48 21 20 12 39 19 42 16 8 -8 -155 -87 -179 -87 -10 0
-18 -4 -18 -10 0 -12 -49 -45 -56 -37 -3 3 7 12 23 21 15 8 24 15 20 16 -5 0
-35 -15 -66 -34 -32 -19 -68 -37 -80 -41 -33 -10 -113 -57 -107 -62 3 -3 20 4
39 16 19 11 38 21 43 21 5 0 -9 -12 -31 -25 -22 -14 -48 -22 -58 -19 -10 3
-55 -15 -110 -44 -50 -27 -191 -100 -312 -162 -121 -62 -256 -132 -300 -155
-44 -23 -147 -77 -230 -120 -82 -43 -199 -103 -260 -135 -121 -64 -168 -78
-190 -60 -35 29 -17 48 118 123 72 41 200 109 282 152 83 43 247 128 365 190
675 352 1028 530 1085 549 86 28 86 24 15 130 -60 93 -127 165 -153 167 -6 1
-23 0 -37 -1 -23 -1 -417 -195 -915 -450 -104 -54 -334 -170 -510 -260 -414
-210 -482 -247 -488 -264 -3 -8 8 -32 25 -55 37 -50 47 -54 18 -6 -23 37 -21
65 5 65 8 0 15 4 15 9 0 5 15 14 33 22 17 7 34 16 37 19 8 10 135 70 148 70 6
0 12 4 12 10 0 13 114 70 140 70 12 0 19 4 16 8 -4 7 204 119 399 214 33 16
76 38 95 48 19 11 241 123 492 250 306 154 468 230 489 230 23 0 42 -10 71
-39 34 -35 39 -45 36 -78 -3 -43 24 -27 -333 -198 -159 -76 -241 -117 -294
-146 -9 -4 -65 -31 -126 -60 -60 -28 -159 -75 -220 -104 -60 -29 -150 -72
-200 -95 -101 -47 -337 -161 -523 -252 -67 -33 -125 -64 -128 -69 -3 -5 -13
-9 -23 -9 -10 0 -30 -9 -45 -21 -26 -21 -27 -21 -48 -3 -27 24 -22 16 66 -116
78 -115 84 -126 67 -115 -7 4 -44 50 -83 103 -39 54 -95 125 -125 160 -59 70
-65 98 -30 135 12 14 112 71 222 127 110 57 231 119 270 140 38 20 138 72 222
114 l152 78 -20 38 c-48 92 -27 153 70 203 84 42 111 37 228 -40 l51 -35 349
176 c191 97 362 178 380 182 60 12 102 -4 155 -58 28 -28 53 -47 56 -42 12 16
578 312 629 328 68 22 166 15 234 -16z m1326 -10 c-3 -7 -5 -2 -5 12 0 14 2
19 5 13 2 -7 2 -19 0 -25z m623 -76 c38 -35 70 -68 70 -74 0 -6 -24 12 -53 39
-29 27 -62 55 -75 62 -12 6 -27 21 -33 32 -16 31 7 16 91 -59z m-3745 8 c-3
-5 -12 -10 -18 -10 -7 0 -6 4 3 10 19 12 23 12 15 0z m-316 -16 c77 -23 131
-76 138 -136 7 -64 -21 -109 -91 -143 -99 -49 -232 -42 -317 15 -51 34 -68 62
-69 115 0 60 29 98 101 134 73 36 151 41 238 15z m7142 -88 c12 -13 12 -46 -1
-46 -6 0 -10 -72 -10 -195 l0 -194 33 -17 c43 -23 87 -56 87 -66 0 -4 -8 -8
-17 -8 -17 -1 -17 -1 0 -11 12 -7 17 -23 17 -53 0 -41 -2 -43 -47 -64 -27 -12
-52 -21 -57 -21 -5 0 -13 -5 -17 -13 -7 -11 -11 -10 -19 2 -8 12 -10 11 -10
-7 0 -41 -19 -24 -23 20 -2 23 -5 -48 -7 -158 -3 -236 -15 -573 -19 -530 -3
37 -19 77 -21 55 -1 -8 -6 -4 -10 10 -8 25 -8 25 -10 -5 l-2 -30 -8 30 c-4 17
-8 22 -9 12 -1 -15 -8 -18 -43 -15 -39 3 -43 5 -41 28 1 14 -1 19 -3 12 -3 -6
-9 -10 -13 -7 -5 2 -9 -55 -10 -128 -1 -72 -4 -134 -7 -136 -2 -2 -4 67 -4
155 -1 87 -3 269 -6 404 -5 211 -8 246 -22 257 -16 12 -16 13 1 7 16 -6 17 5
17 129 0 126 1 135 20 140 21 5 23 35 22 267 l-1 45 10 -50 c6 -27 20 -61 32
-75 13 -15 15 -19 4 -11 -9 8 -19 12 -21 10 -8 -9 -16 -169 -8 -169 4 0 23 13
42 30 43 36 55 37 103 4 21 -14 41 -24 43 -21 3 3 8 80 11 171 5 128 3 172 -7
191 -11 21 -11 32 0 67 12 37 14 40 18 18 2 -14 8 -29 13 -34z m-2947 22 c22
-32 20 -47 -9 -60 -19 -9 -28 -9 -37 0 -15 15 -32 16 -23 2 3 -5 1 -10 -4 -10
-11 0 -408 -212 -593 -317 -54 -30 -98 -61 -98 -69 0 -25 -29 -15 -44 15 -18
34 -11 46 16 27 17 -12 45 1 266 123 136 76 294 163 352 194 69 36 112 66 125
86 24 37 29 38 49 9z m-1329 -48 c3 -5 1 -10 -4 -10 -6 0 -11 5 -11 10 0 6 2
10 4 10 3 0 8 -4 11 -10z m2060 -56 c33 -24 85 -61 115 -81 30 -20 57 -37 59
-39 9 -7 10 -214 1 -214 -6 0 -11 19 -11 43 l-2 42 -7 -35 c-5 -23 -8 -28 -9
-12 -1 20 -3 21 -21 10 -12 -7 -23 -24 -27 -37 -5 -22 -7 -23 -19 -7 -11 16
-13 16 -22 0 -6 -12 -11 -13 -17 -5 -5 9 -10 9 -21 0 -11 -9 -16 -6 -23 12 -7
16 -10 -54 -11 -216 0 -132 -5 -259 -9 -282 -5 -28 -4 -46 3 -53 7 -8 2 -7
-16 1 -30 13 -39 35 -10 25 14 -5 13 -3 -3 9 -16 12 -17 18 -7 24 11 7 11 9
-2 14 -9 4 -16 13 -16 20 0 8 -7 14 -15 14 -8 0 -15 -4 -15 -9 0 -4 -4 -8 -10
-8 -5 0 -10 10 -10 22 0 17 -3 19 -12 10 -16 -16 2 -48 26 -46 9 1 13 -2 11
-7 -3 -4 4 -13 16 -19 11 -7 18 -14 15 -17 -6 -7 -96 49 -96 60 0 5 -4 6 -9 3
-21 -13 -26 49 -29 384 l-3 355 68 42 c37 23 70 42 73 42 3 0 32 -20 65 -45z
m-2025 26 c0 -5 -4 -10 -9 -10 -6 0 -13 5 -16 10 -3 6 1 10 9 10 9 0 16 -4 16
-10z m4013 -45 c-3 -9 -8 -14 -10 -11 -3 3 -2 9 2 15 9 16 15 13 8 -4z m581
-11 c10 -27 7 -34 -16 -34 -13 0 -50 -16 -82 -36 -73 -43 -176 -96 -176 -89 0
2 48 32 106 66 58 34 113 72 122 85 20 27 37 30 46 8z m-1341 -84 c3 -11 1
-20 -4 -20 -5 0 -9 9 -9 20 0 11 2 20 4 20 2 0 6 -9 9 -20z m-2403 6 c0 -2 -7
-7 -16 -10 -8 -3 -12 -2 -9 4 6 10 25 14 25 6z m3296 -128 c30 -18 54 -36 54
-40 0 -13 -7 -10 -66 32 -69 48 -63 52 12 8z m-3722 -23 c30 -27 35 -36 23
-41 -21 -8 -54 11 -62 36 -3 11 -11 20 -16 20 -6 0 -7 5 -4 10 9 15 17 12 59
-25z m876 -28 c-34 -16 -42 -29 -25 -46 11 -11 19 -12 37 -3 l23 11 -22 7
c-13 3 -20 11 -17 16 3 5 14 2 25 -8 25 -22 37 -10 20 19 -13 20 -13 21 2 8
28 -22 20 -50 -18 -68 -35 -17 -36 -17 -60 8 -23 23 -24 26 -9 47 9 14 25 22
42 21 l27 0 -25 -12z m3080 -68 c21 -17 18 -17 -16 3 -61 35 -99 64 -49 38 22
-12 51 -30 65 -41z m-1924 -60 l114 -81 -45 -29 c-25 -16 -63 -38 -84 -48
l-38 -20 -6 -122 c-4 -67 -8 -154 -8 -193 -1 -39 -3 -60 -5 -46 -10 64 -25 98
-45 103 -16 4 -20 2 -16 -12 3 -14 -1 -17 -22 -13 -14 3 -32 9 -38 15 -10 7
-13 2 -14 -19 0 -25 -1 -26 -9 -9 -5 11 -9 17 -10 13 -5 -22 -3 -55 4 -66 4
-7 2 -12 -5 -12 -7 0 -9 -10 -7 -25 3 -14 2 -25 -2 -25 -12 0 -16 94 -18 360
l-2 235 63 36 c34 21 66 37 70 38 5 1 60 -36 123 -80z m-248 46 c1 -13 -2 -27
-7 -30 -6 -3 -9 8 -9 25 1 36 13 40 16 5z m-1034 -2 c4 -5 22 -13 39 -20 23
-8 26 -12 12 -12 -11 -1 -33 8 -50 19 -16 11 -25 20 -19 20 6 0 14 -3 18 -7z
m-2804 -13 c0 -5 -5 -10 -11 -10 -5 0 -7 5 -4 10 3 6 8 10 11 10 2 0 4 -4 4
-10z m2390 0 c0 -5 -8 -10 -17 -10 -9 0 -32 -5 -50 -12 -35 -13 -43 -37 -18
-58 17 -14 19 -43 5 -70 -8 -14 -4 -25 16 -49 14 -17 21 -31 16 -31 -13 0 -49
45 -57 70 -3 11 -1 29 5 40 9 16 7 26 -10 49 -21 30 -26 51 -12 51 4 1 30 7
57 15 62 17 65 17 65 5z m3875 -130 c83 -54 161 -103 175 -110 14 -7 20 -15
14 -17 -5 -2 -59 29 -120 69 -60 40 -151 99 -202 132 -50 32 -92 60 -92 63 0
6 43 -20 225 -137z m-248 23 c-2 -21 -4 -4 -4 37 0 41 2 58 4 38 2 -21 2 -55
0 -75z m-3287 65 c0 -6 -6 -5 -15 2 -8 7 -15 14 -15 16 0 2 7 1 15 -2 8 -4 15
-11 15 -16z m1088 -3 c-3 -3 -9 2 -12 12 -6 14 -5 15 5 6 7 -7 10 -15 7 -18z
m1552 -15 c0 -5 -4 -10 -10 -10 -5 0 -10 5 -10 10 0 6 5 10 10 10 6 0 10 -4
10 -10z m-2725 -20 c3 -5 2 -10 -4 -10 -5 0 -13 5 -16 10 -3 6 -2 10 4 10 5 0
13 -4 16 -10z m65 -16 c0 -2 -7 -4 -15 -4 -8 0 -15 4 -15 10 0 5 7 7 15 4 8
-4 15 -8 15 -10z m-212 -73 c12 -11 20 -26 17 -34 -4 -8 15 -36 47 -69 48 -50
60 -58 127 -74 59 -15 84 -28 120 -61 25 -22 43 -44 39 -48 -4 -5 -27 10 -51
32 -32 30 -58 44 -96 52 -70 15 -97 31 -156 90 -27 28 -53 51 -58 51 -6 0 -21
12 -34 26 -19 20 -21 29 -12 40 15 19 29 17 57 -5z m67 -1 c10 -11 14 -20 9
-20 -12 1 -44 25 -44 34 0 12 17 6 35 -14z m-2885 0 c-8 -5 -19 -10 -25 -10
-5 0 -3 5 5 10 8 5 20 10 25 10 6 0 3 -5 -5 -10z m3730 -1 c-25 -17 -96 -52
-87 -43 12 12 81 52 92 53 6 0 3 -4 -5 -10z m797 -31 c-3 -7 -5 -2 -5 12 0 14
2 19 5 13 2 -7 2 -19 0 -25z m-967 -51 c0 -13 -6 -29 -12 -36 -16 -15 -5 -25
171 -149 198 -140 202 -142 296 -212 50 -36 140 -99 200 -139 131 -88 159
-109 190 -139 18 -18 30 -22 47 -16 20 6 21 5 10 -8 -11 -13 0 -24 75 -76 116
-79 294 -207 313 -224 25 -21 145 -109 287 -207 73 -50 135 -96 138 -101 3 -6
13 -10 22 -10 8 0 40 -21 71 -46 32 -25 149 -111 262 -191 113 -79 224 -163
247 -185 l42 -41 113 56 c62 31 181 96 265 144 285 165 283 164 282 141 0 -7
-30 -27 -67 -45 -37 -18 -119 -62 -182 -99 -138 -80 -297 -168 -363 -201 l-48
-24 -41 37 -41 37 -20 -24 c-13 -16 -27 -23 -43 -21 -28 4 -32 -17 -9 -52 14
-21 13 -24 -3 -39 -10 -9 -32 -19 -48 -23 -23 -4 -34 0 -54 22 l-25 27 32 -23
c29 -21 35 -22 58 -10 33 17 32 27 -7 68 -32 33 -33 33 -8 27 19 -4 31 0 45
14 10 12 16 22 14 24 -2 2 -38 28 -79 58 -242 179 -355 253 -371 244 -6 -4
-26 11 -45 33 -18 22 -73 68 -121 102 -270 189 -329 229 -342 230 -8 0 -19 -8
-26 -17 -11 -15 -15 -15 -29 -4 -22 18 -20 31 4 31 48 0 21 28 -139 142 -220
157 -281 192 -281 158 0 -5 -7 -10 -15 -10 -14 0 -20 -19 -16 -44 9 -43 -36
-80 -76 -65 -33 12 -32 63 2 85 13 9 30 14 37 12 21 -7 38 18 37 54 0 35 -23
57 -164 155 -33 23 -85 60 -115 82 -30 23 -68 48 -84 57 -27 15 -29 14 -51 -6
-13 -12 -28 -19 -34 -15 -16 10 -13 45 4 45 45 0 -11 48 -250 215 -82 57 -160
111 -173 120 -31 23 -25 35 39 72 66 38 79 40 79 10z m2163 -106 l127 -84 -53
-34 c-28 -19 -69 -43 -89 -54 l-38 -19 -2 -233 c-1 -127 -1 -250 -1 -272 1
-34 0 -36 -7 -15 -4 14 -9 43 -9 65 -1 23 -5 35 -9 28 -8 -12 -114 -21 -142
-13 -16 6 -16 7 -20 -120 l-3 -95 -7 110 c-4 61 -8 229 -9 373 -1 239 -3 265
-19 280 -9 10 -13 14 -8 10 20 -16 26 -7 26 40 l0 47 63 37 c34 20 64 35 68
35 3 -1 62 -40 132 -86z m-5978 56 c-45 -26 -75 -39 -75 -32 0 6 92 54 105 54
6 1 -8 -10 -30 -22z m5628 -85 c20 -14 37 -27 37 -29 0 -3 -12 3 -27 13 -83
53 -103 67 -103 71 0 5 11 -1 93 -55z m-7628 32 c-26 -20 -55 -36 -55 -30 0 5
63 46 70 46 3 -1 -4 -8 -15 -16z m6015 8 c0 -5 -16 -16 -36 -25 -26 -13 -35
-14 -32 -5 7 21 68 48 68 30z m3020 -12 c-8 -5 -19 -10 -25 -10 -5 0 -3 5 5
10 8 5 20 10 25 10 6 0 3 -5 -5 -10z m-170 -28 c21 -17 21 -18 2 -35 -30 -28
-70 0 -56 38 8 20 27 19 54 -3z m-8944 -17 c-11 -8 -25 -15 -30 -15 -6 1 0 7
14 15 32 19 40 18 16 0z m1894 0 c0 -2 -10 -9 -22 -15 -22 -11 -22 -10 -4 4
21 17 26 19 26 11z m7428 -73 c15 -13 1 -6 -30 14 -32 20 -58 39 -58 41 0 7
58 -29 88 -55z m-9431 13 c-32 -19 -63 -35 -70 -35 -6 0 6 10 28 21 22 12 49
28 60 35 11 8 24 14 30 14 5 0 -16 -16 -48 -35z m1923 11 c0 -2 -7 -7 -16 -10
-8 -3 -12 -2 -9 4 6 10 25 14 25 6z m6965 -109 c23 -23 -56 29 -91 60 -34 30
-32 29 21 -8 33 -23 65 -46 70 -52z m-7030 73 c-3 -5 -11 -10 -16 -10 -6 0 -7
5 -4 10 3 6 11 10 16 10 6 0 7 -4 4 -10z m-39 -19 c-6 -10 -66 -33 -66 -26 0
3 15 11 33 19 40 18 39 18 33 7z m3570 -38 c58 -56 155 -132 234 -184 63 -41
138 -117 105 -105 -19 7 -19 6 -3 -10 13 -13 20 -14 30 -6 10 8 25 2 60 -23
46 -34 148 -147 148 -166 0 -16 -17 -10 -52 18 -36 30 -170 145 -178 153 -3 3
-35 30 -72 59 -38 30 -68 57 -68 61 0 13 -79 86 -147 136 -59 44 -127 114
-110 114 2 0 26 -21 53 -47z m66 15 c8 -13 17 -33 20 -46 6 -22 6 -22 -24 -5
-39 24 -61 49 -53 62 11 19 42 12 57 -11z m-3712 -13 c0 -6 -56 -35 -67 -35
-4 1 8 9 27 20 39 22 40 22 40 15z m-1920 -10 c0 -6 -76 -45 -87 -45 -4 1 12
12 37 25 50 27 50 27 50 20z m6760 1 c0 -2 -7 -7 -16 -10 -8 -3 -12 -2 -9 4 6
10 25 14 25 6z m-986 -99 c36 -24 41 -25 67 -12 24 13 30 13 43 -1 9 -8 16
-19 16 -24 0 -4 22 -31 48 -59 35 -37 73 -62 146 -97 53 -25 96 -48 93 -50 -6
-6 -125 44 -170 73 -41 25 -133 113 -130 123 1 3 -15 5 -35 4 -21 0 -49 5 -63
12 -34 17 -129 103 -129 117 0 6 17 -5 38 -25 20 -19 55 -47 76 -61z m1847 76
c13 -15 12 -15 -8 -4 -24 12 -29 21 -14 21 5 0 15 -7 22 -17z m-971 3 c0 -2
-7 -7 -16 -10 -8 -3 -12 -2 -9 4 6 10 25 14 25 6z m70 0 c0 -9 -73 -47 -84
-43 -6 2 9 13 34 25 54 24 50 23 50 18z m2483 -73 c53 -34 97 -65 97 -69 0 -3
-6 -2 -12 2 -38 23 -194 129 -203 137 -15 15 10 0 118 -70z m-1339 -14 c58
-41 106 -76 106 -79 0 -3 -38 -26 -85 -50 -66 -35 -85 -50 -84 -65 1 -11 0
-51 -1 -90 -2 -59 -4 -64 -10 -35 -4 19 -8 30 -9 25 0 -6 -34 -10 -78 -10
l-78 0 -6 -85 -5 -85 -3 80 c-1 44 -4 154 -7 245 l-5 165 63 32 c35 18 70 31
80 29 9 -2 64 -37 122 -77z m-6049 62 c-18 -17 -306 -163 -311 -158 -4 4 301
165 316 167 2 0 0 -4 -5 -9z m-1985 -51 c-8 -5 -19 -10 -25 -10 -5 0 -3 5 5
10 8 5 20 10 25 10 6 0 3 -5 -5 -10z m6965 0 c3 -5 1 -10 -4 -10 -6 0 -11 5
-11 10 0 6 2 10 4 10 3 0 8 -4 11 -10z m-605 -66 c0 -12 -6 -15 -25 -10 -24 6
-25 5 -19 -21 4 -16 15 -40 25 -55 11 -14 19 -29 19 -34 0 -4 12 -23 26 -42
21 -27 24 -36 13 -42 -15 -10 -29 -4 -29 13 0 6 -21 51 -46 100 -50 96 -49
107 9 107 18 0 27 -5 27 -16z m2325 -2 c-3 -3 -11 0 -18 7 -9 10 -8 11 6 5 10
-3 15 -9 12 -12z m-2058 -31 c18 -37 1 -61 -45 -61 -28 0 -41 6 -51 23 -13 21
-13 22 6 5 24 -22 59 -23 67 -2 8 22 9 21 -16 44 l-23 22 25 -4 c14 -2 30 -14
37 -27z m2878 11 c-3 -3 -11 0 -18 7 -9 10 -8 11 6 5 10 -3 15 -9 12 -12z
m-2935 -9 c20 -18 27 -43 11 -43 -5 0 -14 7 -21 15 -7 8 -19 15 -27 15 -13 0
-13 3 -3 15 15 19 15 19 40 -2z m-5710 2 c0 -2 -16 -15 -36 -29 -33 -22 -34
-25 -15 -31 12 -3 21 -14 21 -23 0 -19 41 -82 54 -82 5 0 15 -8 23 -17 8 -10
12 -12 8 -6 -4 9 -1 11 10 7 9 -4 15 -8 13 -9 -6 -6 -593 -300 -658 -330 -36
-16 -74 -36 -84 -45 -11 -8 -17 -10 -14 -5 4 6 -7 10 -24 11 -30 1 -31 1 -8
-11 l23 -13 -22 -7 c-13 -4 -28 -2 -33 3 -8 8 -4 9 13 6 l24 -5 -24 14 c-20
12 -21 15 -6 20 9 4 29 7 43 8 15 0 21 3 15 6 -10 4 -10 10 2 26 8 12 15 42
15 67 0 33 -3 41 -10 30 -7 -11 -9 -8 -8 14 2 24 10 32 48 47 25 11 52 23 60
29 8 5 43 24 78 42 34 18 62 35 62 39 0 4 -84 -36 -187 -88 -426 -216 -433
-220 -433 -286 0 -22 9 -54 19 -71 21 -33 166 -173 406 -391 194 -175 296
-270 435 -402 36 -35 68 -63 72 -63 5 0 8 -5 8 -11 0 -15 -31 12 -279 240
-630 577 -691 639 -691 696 0 28 29 73 62 98 44 32 996 527 1015 527 2 0 3 -2
3 -5z m8685 -23 c-3 -3 -11 0 -18 7 -9 10 -8 11 6 5 10 -3 15 -9 12 -12z
m-7905 -6 c0 -2 -7 -7 -16 -10 -8 -3 -12 -2 -9 4 6 10 25 14 25 6z m-40 -21
c0 -6 -97 -55 -107 -55 -4 1 17 14 47 30 61 32 60 32 60 25z m8005 -13 c-3 -3
-11 0 -18 7 -9 10 -8 11 6 5 10 -3 15 -9 12 -12z m-8125 -47 c0 -7 -142 -76
-147 -72 -2 3 135 76 145 77 1 0 2 -2 2 -5z m7975 -287 c132 -89 242 -173 139
-106 -148 95 -458 313 -476 335 -7 9 37 -20 97 -63 61 -44 169 -118 240 -166z
m-2993 205 c10 -9 18 -29 18 -45 0 -39 67 -102 132 -124 l52 -17 23 29 c25 32
29 28 11 -11 -24 -53 -132 -22 -206 58 -23 26 -50 47 -60 47 -22 0 -42 19 -42
40 0 38 41 51 72 23z m1863 -113 c3 -5 1 -10 -4 -10 -6 0 -11 5 -11 10 0 6 2
10 4 10 3 0 8 -4 11 -10z m-8155 -95 c-6 -8 -9 -18 -6 -23 6 -9 -52 -47 -61
-39 -2 3 5 10 16 17 12 6 21 19 21 30 0 17 12 27 34 29 5 1 3 -6 -4 -14z m-50
-22 c-8 -4 -21 -12 -28 -20 -7 -7 -18 -13 -24 -13 -6 0 -1 9 12 20 13 11 30
20 39 19 13 0 14 -2 1 -6z m7596 -68 c-11 -8 -27 -15 -35 -15 -10 1 -7 6 9 15
33 19 50 18 26 0z m984 -11 c0 -2 -7 -4 -15 -4 -8 0 -15 4 -15 10 0 5 7 7 15
4 8 -4 15 -8 15 -10z m1050 -96 c13 -10 22 -20 19 -22 -5 -5 -119 72 -119 80
0 6 61 -30 100 -58z m46 7 c14 -11 15 -14 4 -14 -8 0 -24 6 -34 14 -15 11 -16
15 -5 15 8 0 24 -7 35 -15z m-2266 -40 l24 -25 -21 -28 c-11 -15 -31 -28 -44
-29 -16 -1 -18 0 -6 4 18 5 18 6 -2 19 -25 18 -26 27 -5 59 20 31 25 31 54 0z
m2287 -2 c-9 -9 -20 -13 -24 -9 -4 4 -1 11 7 16 25 16 35 11 17 -7z m-610
-105 c96 -67 119 -86 111 -93 -5 -5 -158 95 -200 133 -24 20 -23 38 1 21 10
-8 50 -35 88 -61z m-9093 46 c5 -14 4 -15 -9 -4 -17 14 -19 20 -6 20 5 0 12
-7 15 -16z m6941 -94 c16 -17 16 -20 1 -35 -14 -15 -18 -14 -46 6 -16 13 -30
26 -30 29 0 26 51 26 75 0z m1090 -20 c-3 -5 -14 -10 -23 -10 -15 0 -15 2 -2
10 20 13 33 13 25 0z m1354 -74 c36 -38 35 -50 -6 -61 -15 -3 -38 -14 -52 -24
-14 -10 -127 -75 -251 -143 -124 -69 -265 -148 -313 -176 -70 -40 -89 -48 -94
-36 -3 8 -4 16 -2 17 2 1 36 17 74 36 39 19 122 64 185 101 63 37 175 100 248
140 72 39 132 75 132 78 0 4 14 13 30 21 17 7 29 18 27 24 -7 21 -27 18 -51
-8 -24 -26 -46 -27 -46 -2 0 11 67 66 81 67 3 0 20 -15 38 -34z m-2347 -38
c-7 -7 -12 -8 -12 -2 0 14 12 26 19 19 2 -3 -1 -11 -7 -17z m83 -12 c15 -17
19 -28 12 -35 -10 -10 164 -185 263 -262 30 -24 71 -57 91 -75 20 -17 65 -41
101 -53 36 -12 85 -34 109 -49 56 -36 77 -43 84 -32 10 17 34 11 45 -11 9 -16
8 -26 -5 -45 -8 -13 -20 -24 -26 -24 -5 0 -31 20 -57 45 -52 50 -102 76 -180
95 -43 10 -76 30 -165 101 -120 96 -347 315 -347 336 0 12 27 32 44 33 5 0 19
-11 31 -24z m775 -29 c0 -2 -10 -12 -22 -23 l-23 -19 19 23 c18 21 26 27 26
19z m67 -13 c3 -8 1 -20 -6 -27 -8 -8 -16 -5 -31 11 -26 28 -25 32 5 32 14 0
28 -7 32 -16z m1098 -42 c-6 -7 -35 18 -35 31 0 5 9 2 20 -8 11 -10 18 -20 15
-23z m-1133 1 l29 -27 6 22 c6 25 26 31 21 6 -2 -9 -14 -24 -28 -33 -13 -9
-21 -11 -17 -4 5 8 -1 15 -18 19 -13 3 -22 11 -19 16 4 6 1 9 -7 6 -23 -8 -16
-33 9 -32 25 1 25 -19 -1 -24 -23 -5 -40 33 -27 58 14 26 18 25 52 -7z m-418
-178 c16 -12 17 -17 6 -30 -12 -14 -15 -13 -37 6 -12 13 -23 26 -23 31 0 13
33 9 54 -7z m1157 -12 c13 -16 12 -17 -3 -4 -10 7 -18 15 -18 17 0 8 8 3 21
-13z m-311 -96 c0 -2 -10 -12 -22 -23 l-23 -19 19 23 c18 21 26 27 26 19z m30
-35 c0 -11 -37 -32 -44 -25 -11 11 -6 21 12 26 28 8 32 7 32 -1z m-8557 -177
c11 -16 -25 15 -81 70 -56 54 -102 101 -102 103 0 9 164 -146 183 -173z m8564
138 c-9 -9 -20 -13 -24 -9 -4 4 -1 11 7 16 25 16 35 11 17 -7z m321 -96 c18
-14 15 -34 -10 -57 -42 -39 -90 -11 -53 30 19 21 35 18 35 -6 0 -11 -6 -13
-22 -8 -20 6 -21 5 -10 -9 11 -13 17 -14 33 -4 25 15 24 47 -1 54 -11 3 -20 9
-20 14 0 9 28 1 48 -14z m-70 -1 c-7 -8 -15 -12 -17 -11 -5 6 10 25 20 25 5 0
4 -6 -3 -14z m-8563 -265 c44 -40 72 -69 63 -64 -22 11 -282 253 -287 267 -2
6 30 -20 70 -59 41 -38 110 -103 154 -144z m-255 144 c41 -2 54 -25 13 -25
-15 0 -61 6 -100 14 -69 13 -73 13 -73 -5 0 -47 105 -128 195 -150 65 -15 78
-28 104 -99 l21 -58 98 -7 c143 -11 160 -26 24 -22 -131 4 -140 9 -170 97
l-19 55 -59 13 c-93 21 -214 119 -214 175 l0 30 73 -9 c39 -4 88 -8 107 -9z
m871 -22 c19 -21 23 -29 9 -18 -48 39 -64 55 -54 55 6 0 26 -17 45 -37z m114
-103 c22 -23 74 -69 115 -103 41 -33 93 -77 115 -97 22 -20 90 -81 150 -136
61 -54 198 -180 306 -279 107 -99 260 -237 340 -306 79 -69 207 -184 284 -255
217 -199 319 -291 455 -409 69 -60 190 -168 270 -240 168 -153 343 -310 455
-410 43 -38 97 -87 119 -107 23 -20 53 -47 67 -60 146 -128 268 -242 265 -246
-4 -3 -257 218 -506 442 -19 17 -100 90 -180 161 -80 71 -192 172 -250 225
-58 53 -179 161 -270 240 -91 79 -224 198 -295 265 -155 142 -469 424 -534
478 -25 22 -100 89 -166 151 -66 62 -172 159 -235 216 -63 57 -158 143 -210
191 -52 48 -133 120 -180 160 -102 87 -203 185 -175 171 11 -6 38 -29 60 -52z
m236 13 c13 -16 12 -17 -3 -4 -10 7 -18 15 -18 17 0 8 8 3 21 -13z m7442 -13
c13 -35 32 -39 47 -10 13 24 60 28 60 5 0 -9 -7 -18 -15 -21 -11 -5 -7 -13 19
-38 18 -17 46 -53 61 -81 l28 -50 -37 42 c-52 60 -136 108 -123 71 2 -7 -13
-26 -35 -41 -21 -16 -38 -36 -38 -46 0 -21 43 -63 88 -85 40 -20 40 -26 3 -26
-36 0 -84 39 -124 100 -29 45 -30 25 0 -32 8 -17 9 -28 3 -28 -5 0 -10 -8 -10
-17 -1 -11 -8 -3 -18 18 -9 19 -27 48 -40 63 -24 31 -16 56 18 56 24 0 33 28
15 46 -21 22 1 53 37 52 15 -1 25 -5 21 -11 -3 -6 -1 -7 5 -3 7 4 8 15 2 30
-5 13 -6 27 -3 30 13 13 25 5 36 -24z m189 -67 c35 -37 35 -38 17 -57 -18 -19
-19 -19 -25 0 -4 10 -16 30 -26 43 -19 25 -24 51 -10 51 4 0 24 -17 44 -37z
m-8380 -145 c52 -51 74 -75 49 -53 -25 22 -50 45 -56 52 -5 6 -32 30 -58 52
-27 23 -44 41 -39 41 5 0 52 -42 104 -92z m8425 56 c-3 -3 -12 -4 -19 -1 -8 3
-5 6 6 6 11 1 17 -2 13 -5z m-84 -39 c-3 -9 -8 -14 -10 -11 -3 3 -2 9 2 15 9
16 15 13 8 -4z m93 -11 c-4 -9 -9 -15 -11 -12 -3 3 -3 13 1 22 4 9 9 15 11 12
3 -3 3 -13 -1 -22z m-39 -16 c-3 -8 -6 -5 -6 6 -1 11 2 17 5 13 3 -3 4 -12 1
-19z m-8441 -36 c-3 -2 -18 -1 -33 3 -25 7 -26 8 -8 15 19 7 51 -7 41 -18z
m8954 11 c76 -50 141 -144 139 -203 0 -17 -5 -9 -13 21 -20 74 -67 132 -152
186 -11 6 -14 12 -9 12 6 1 22 -6 35 -16z m-580 -7 c0 -2 -8 -10 -17 -17 -16
-13 -17 -12 -4 4 13 16 21 21 21 13z m98 -44 c3 -11 0 -12 -16 -3 -21 11 -32
6 -32 -17 0 -8 6 -12 14 -9 10 4 13 1 9 -9 -7 -18 -23 -14 -37 8 -7 12 -6 21
4 33 15 18 51 16 58 -3z m417 -16 c22 -33 39 -38 72 -21 24 13 29 12 45 -2 27
-24 22 -40 -22 -72 l-40 -29 27 -33 27 -32 -56 37 c-33 23 -63 51 -72 71 -21
45 -21 62 1 44 15 -13 15 -12 0 18 -20 37 -21 43 -7 43 5 0 17 -11 25 -24z
m-8930 -16 c4 -6 -7 -8 -27 -4 -36 6 -39 10 37 -53 56 -47 39 -49 -21 -3 -67
51 -75 70 -29 70 18 0 37 -4 40 -10z m8315 -16 c0 -18 14 -18 30 1 17 21 30
19 30 -4 0 -28 -37 -37 -61 -15 -19 17 -27 50 -9 39 6 -3 10 -13 10 -21z m224
-87 c74 -107 152 -207 163 -207 6 0 13 6 16 13 3 9 7 9 20 -2 23 -18 78 -7
111 24 30 28 72 35 62 10 -9 -25 92 -164 191 -262 103 -104 105 -128 2 -30
-71 67 -139 148 -185 221 -16 25 -35 46 -41 46 -25 0 -123 -55 -129 -72 -7
-23 13 -58 34 -59 11 0 13 -2 4 -6 -7 -3 -22 3 -33 13 -16 14 -24 16 -38 7
-16 -10 -23 -7 -45 18 -22 24 -25 33 -16 49 9 18 -2 39 -80 149 -49 70 -90
131 -90 134 0 16 28 -8 54 -46z m587 -80 c-10 -9 -11 -8 -5 6 3 10 9 15 12 12
3 -3 0 -11 -7 -18z m-9466 -7 c-9 -15 -114 -64 -121 -57 -7 7 72 59 101 68 24
7 29 4 20 -11z m17 -45 c1 -10 -128 -84 -147 -84 -16 -1 36 39 73 55 18 8 35
21 39 30 6 16 33 16 35 -1z m-226 -56 c-38 -22 -71 -37 -74 -35 -8 9 43 48 79
61 65 24 64 14 -5 -26z m8665 -74 c5 4 6 -1 3 -9 -4 -10 7 -21 33 -35 22 -12
31 -20 21 -21 -10 0 -27 8 -38 17 -11 10 -30 18 -42 18 -28 0 -37 32 -11 37
10 2 20 0 21 -4 2 -5 8 -6 13 -3z m-7378 -54 c-2 -3 -16 8 -31 24 l-27 28 31
-24 c17 -13 30 -26 27 -28z m7371 -6 c-7 -17 -32 -19 -54 -4 -12 8 -9 9 12 5
15 -3 30 -2 33 4 9 15 15 12 9 -5z m-34 -30 c7 -8 17 -12 23 -8 6 3 7 1 3 -5
-8 -13 -39 -1 -51 18 -10 16 11 12 25 -5z m154 -36 c-9 -15 -24 -10 -18 6 4 8
2 15 -4 15 -5 0 -13 8 -16 17 -5 13 0 11 18 -6 14 -13 23 -28 20 -32z m-7404
6 c0 -12 -29 -3 -34 10 -4 13 -2 14 14 5 11 -6 20 -13 20 -15z m7355 -24 c3
-5 0 -13 -6 -17 -8 -5 -9 -3 -4 6 6 10 4 12 -9 7 -10 -4 -15 -3 -11 3 8 13 22
13 30 1z m-7741 -7 c33 -13 14 -24 -39 -24 -37 0 -55 4 -55 13 0 7 -7 4 -15
-7 -16 -22 -31 -16 -22 9 5 11 21 15 61 15 30 0 61 -3 70 -6z m416 -4 c0 -5
-5 -10 -11 -10 -5 0 -7 5 -4 10 3 6 8 10 11 10 2 0 4 -4 4 -10z m80 -66 l35
-38 -41 32 c-22 17 -47 39 -55 48 -27 34 24 -2 61 -42z m7424 28 c3 -5 -1 -9
-9 -9 -8 0 -12 4 -9 9 3 4 7 8 9 8 2 0 6 -4 9 -8z m-89 -12 c3 -5 1 -10 -4
-10 -6 0 -11 5 -11 10 0 6 2 10 4 10 3 0 8 -4 11 -10z m-7705 -30 c0 -12 -17
-12 -45 0 -17 7 -15 9 13 9 17 1 32 -3 32 -9z m8751 1 c-10 -7 -10 -10 -1 -16
7 -4 16 -1 21 6 7 11 9 11 9 -3 0 -9 4 -20 10 -23 6 -3 7 1 4 12 -5 15 -4 15
7 -1 15 -25 16 -91 0 -110 -6 -8 -24 -17 -38 -21 -29 -7 -68 24 -104 82 l-20
32 22 25 c17 20 32 26 63 26 27 0 36 -3 27 -9z m-8451 -11 c8 -5 11 -10 5 -10
-5 0 -17 5 -25 10 -8 5 -10 10 -5 10 6 0 17 -5 25 -10z m7490 -20 c0 -5 -5
-10 -11 -10 -5 0 -7 5 -4 10 3 6 8 10 11 10 2 0 4 -4 4 -10z m-33 -27 c-4 -3
-1 -13 6 -22 11 -14 10 -14 -5 -2 -21 15 -23 31 -6 31 6 0 8 -3 5 -7z m838 -3
c3 -5 2 -10 -4 -10 -5 0 -13 5 -16 10 -3 6 -2 10 4 10 5 0 13 -4 16 -10z
m-765 -69 c0 -13 -2 -13 -12 -1 -7 8 -20 20 -28 27 -12 11 -10 11 13 2 15 -7
27 -19 27 -28z m-8771 -27 c29 -36 26 -59 -8 -83 -37 -26 -39 -26 -67 4 -13
14 -29 25 -35 25 -7 0 -3 -10 9 -23 27 -29 27 -33 1 -48 -17 -9 -20 -8 -16 3
2 7 -4 23 -15 34 -19 21 -19 21 33 68 28 25 57 46 64 46 8 0 23 -12 34 -26z
m1376 -32 c-3 -3 -11 0 -18 7 -9 10 -8 11 6 5 10 -3 15 -9 12 -12z m215 -147
c19 -19 32 -35 29 -35 -3 0 -20 16 -39 35 -19 19 -32 35 -29 35 3 0 20 -16 39
-35z m7405 25 c-3 -5 -12 -10 -18 -10 -7 0 -6 4 3 10 19 12 23 12 15 0z
m-6310 -60 c10 -11 16 -20 13 -20 -3 0 -13 9 -23 20 -10 11 -16 20 -13 20 3 0
13 -9 23 -20z m-1157 -243 c6 -4 12 -13 12 -18 0 -6 -7 -3 -16 5 -19 20 -31
21 -15 2 6 -7 9 -22 5 -32 -4 -12 -3 -15 3 -7 5 7 9 -22 9 -70 1 -45 0 -68 -2
-52 -11 81 -37 174 -58 212 -21 37 -22 42 -8 45 11 2 24 -10 37 -37 11 -22 26
-44 33 -48z m22 -102 c0 -5 -5 -3 -10 5 -5 8 -10 20 -10 25 0 6 5 3 10 -5 5
-8 10 -19 10 -25z m-17 -135 c-3 -11 -7 -20 -8 -20 -1 0 -5 9 -8 20 -3 12 0
20 8 20 8 0 11 -8 8 -20z m28 -3 c-10 -9 -11 -8 -5 6 3 10 9 15 12 12 3 -3 0
-11 -7 -18z m112 -4 c-7 -2 -19 -2 -25 0 -7 3 -2 5 12 5 14 0 19 -2 13 -5z
m-158 -63 c-9 -41 -17 -33 -9 9 4 17 9 30 11 27 3 -2 2 -19 -2 -36z m-1657
-75 c-3 -3 -9 2 -12 12 -6 14 -5 15 5 6 7 -7 10 -15 7 -18z m1623 -12 c-12
-20 -14 -14 -5 12 4 9 9 14 11 11 3 -2 0 -13 -6 -23z m8126 2 c46 -23 103 -80
103 -102 0 -4 -4 -3 -8 2 -4 6 -17 19 -30 29 l-23 20 16 -30 c8 -16 15 -40 15
-54 l0 -24 -16 22 c-19 28 -29 28 -93 -4 l-54 -25 -31 28 c-17 15 -25 21 -18
13 6 -8 12 -19 12 -25 0 -10 -93 -68 -280 -176 -96 -55 -222 -128 -335 -195
-55 -32 -120 -69 -145 -83 -25 -13 -98 -55 -164 -93 l-119 -69 -25 23 c-19 17
-24 19 -19 6 5 -15 -28 -43 -68 -58 -5 -2 -39 -22 -75 -45 -36 -23 -72 -45
-80 -48 -8 -4 -22 -11 -30 -17 -19 -12 -186 -112 -260 -155 -214 -124 -251
-145 -256 -145 -3 0 -18 -9 -33 -19 -32 -23 -278 -165 -336 -194 -22 -11 -58
-31 -80 -45 -85 -54 -210 -123 -232 -128 -13 -4 -23 -11 -23 -17 0 -7 -4 -7
-12 1 -23 23 -29 12 -10 -16 46 -65 41 -72 -13 -14 -62 68 -97 86 -43 23 18
-22 41 -54 51 -73 l18 -33 -29 35 c-17 19 -44 51 -60 70 l-31 35 27 16 c15 9
73 45 130 80 57 35 129 78 161 94 32 17 78 45 104 63 25 17 48 32 51 32 3 0
40 21 83 47 43 27 87 54 98 60 11 7 34 19 50 27 17 8 48 28 71 44 22 16 51 33
63 37 23 7 72 36 206 120 39 24 73 44 77 45 19 1 179 100 263 162 27 21 54 38
59 38 4 0 25 13 45 29 37 29 231 145 437 261 63 36 165 96 226 133 61 38 148
87 194 110 81 40 106 67 64 67 -32 0 -76 -21 -237 -113 -81 -46 -222 -126
-313 -177 -241 -136 -390 -231 -383 -243 3 -6 1 -7 -6 -3 -7 5 -20 -3 -32 -18
-11 -14 -23 -25 -27 -24 -4 1 -47 -24 -95 -56 -48 -32 -91 -56 -94 -52 -24 23
278 221 752 493 154 89 306 177 337 196 61 37 152 57 171 38 18 -18 33 -13 99
33 105 73 154 81 235 41z m-9857 -89 c0 -8 -4 -18 -10 -21 -5 -3 -10 -4 -10
-1 0 2 -3 11 -6 20 -4 11 -1 16 10 16 9 0 16 -6 16 -14z m106 -69 c14 -30 14
-31 -1 -12 -25 30 -39 59 -26 51 6 -4 18 -22 27 -39z m1855 -20 c-10 -9 -11
-8 -5 6 3 10 9 15 12 12 3 -3 0 -11 -7 -18z m-97 -13 c9 -22 8 -24 -9 -18 -8
4 -15 12 -15 20 0 19 16 18 24 -2z m7311 -94 c-3 -5 -12 -10 -18 -10 -7 0 -6
4 3 10 19 12 23 12 15 0z m785 7 c0 -2 -10 -12 -22 -23 l-23 -19 19 23 c18 21
26 27 26 19z m-9610 -87 c0 -5 -2 -10 -4 -10 -3 0 -8 5 -11 10 -3 6 -1 10 4
10 6 0 11 -4 11 -10z m-17 -61 l-60 -58 54 -28 c71 -35 56 -40 -32 -9 -68 24
-96 46 -57 46 11 0 46 26 78 58 33 32 63 56 68 53 5 -2 -18 -30 -51 -62z
m2425 39 c-5 -15 -148 -103 -348 -215 -74 -42 -227 -131 -340 -199 -243 -145
-289 -169 -298 -159 -4 4 -2 10 5 12 7 2 94 54 195 115 101 60 309 182 463
270 154 88 287 167 295 174 18 17 33 18 28 2z m-2643 -16 c-3 -3 -11 0 -18 7
-9 10 -8 11 6 5 10 -3 15 -9 12 -12z m179 11 c5 -6 -48 -63 -59 -63 -3 0 5 16
16 35 21 35 30 41 43 28z m9562 -30 c-11 -36 -121 -136 -216 -198 -218 -142
-562 -345 -699 -414 -58 -30 -65 -31 -79 -17 -15 15 -15 16 0 16 8 0 21 7 28
15 7 8 18 15 24 14 21 -2 56 13 50 22 -3 5 7 9 21 9 15 0 24 4 20 10 -3 6 0
10 8 10 8 0 20 7 27 15 15 18 34 20 25 3 -4 -7 1 -4 9 6 9 11 16 16 16 10 0
-5 7 -1 15 10 8 11 19 15 27 10 7 -4 10 -4 6 1 -11 11 29 38 44 29 6 -4 9 -3
5 2 -3 5 13 20 35 33 22 13 37 18 33 11 -5 -8 -1 -8 13 1 12 7 18 17 16 21 -3
5 -2 7 3 6 9 -3 52 20 69 36 6 6 59 40 118 76 159 96 260 172 295 224 36 52
71 80 84 67 5 -5 6 -18 3 -28z m-9640 -20 c-7 -7 -26 7 -26 19 0 6 6 6 15 -2
9 -7 13 -15 11 -17z m2614 -17 c-14 -13 -241 -148 -440 -261 -125 -70 -513
-300 -600 -355 -103 -65 -467 -273 -543 -311 -82 -41 -107 -65 -107 -102 0
-34 6 -41 301 -312 101 -93 274 -260 384 -370 110 -109 171 -172 135 -138 -36
33 -115 105 -176 159 -279 248 -651 605 -664 638 -20 55 12 88 175 176 81 43
368 211 720 420 202 120 584 342 725 422 86 48 117 60 90 34z m-130 -16 c-14
-11 -29 -20 -35 -20 -5 0 4 9 20 20 38 25 48 25 15 0z m-60 -35 c0 -2 -10 -9
-22 -15 -22 -11 -22 -10 -4 4 21 17 26 19 26 11z m6089 -19 c-12 -10 -191
-116 -197 -116 -13 0 177 118 192 119 5 1 7 -1 5 -3z m-6174 -32 c-26 -20 -55
-36 -55 -30 0 5 63 46 70 46 3 -1 -4 -8 -15 -16z m-65 -39 c0 -2 -10 -9 -22
-15 -22 -11 -22 -10 -4 4 21 17 26 19 26 11z m-1696 -50 c-4 -8 -10 -15 -14
-15 -4 0 -10 7 -14 15 -4 10 1 15 14 15 13 0 18 -5 14 -15z m1626 10 c0 -6
-57 -36 -162 -87 -120 -57 -92 -35 40 31 129 66 122 63 122 56z m-1602 -64
c27 -17 -28 -29 -68 -15 -13 4 -13 6 0 14 19 12 51 12 68 1z m3406 -56 c21
-19 34 -35 29 -35 -5 0 -24 16 -43 35 -19 19 -32 35 -29 35 3 0 22 -16 43 -35z
m-2069 -21 c-24 -18 -83 -50 -73 -39 10 10 81 54 88 54 3 0 -4 -7 -15 -15z
m856 -82 l2 -67 7 63 c4 34 10 65 14 69 11 12 198 -16 286 -42 91 -27 226 -88
287 -129 56 -38 169 -153 203 -206 73 -113 102 -257 80 -389 -13 -78 -62 -186
-107 -236 -16 -17 -24 -25 -19 -18 5 8 7 15 5 17 -2 3 -94 38 -204 80 -110 41
-272 103 -360 136 -88 34 -169 64 -180 68 -18 5 -19 4 -5 -14 8 -10 26 -30 41
-44 14 -14 50 -54 80 -90 29 -35 67 -77 82 -92 15 -16 24 -28 20 -28 -4 0 -35
29 -69 65 -43 46 -66 64 -78 59 -9 -3 -16 -10 -16 -15 0 -14 -17 -10 -23 5 -4
10 -1 13 7 10 7 -3 18 1 24 9 9 11 6 19 -15 38 -14 13 -23 18 -19 12 10 -18
-2 -33 -19 -27 -8 4 -12 11 -8 17 4 6 1 7 -8 1 -17 -11 -51 -6 -62 10 -6 8
-10 8 -14 -1 -9 -23 -25 -14 -18 10 6 19 3 18 -19 -8 -18 -21 -24 -37 -21 -55
4 -19 3 -21 -5 -10 -8 12 -10 9 -10 -12 0 -16 -4 -28 -10 -28 -15 0 -12 23 11
74 11 26 18 52 16 59 -3 7 -8 4 -12 -8 -7 -20 -11 -31 -39 -95 -50 -119 -75
-174 -76 -165 0 10 21 81 36 120 10 28 -11 8 -29 -28 l-14 -27 -8 42 c-4 24
-10 35 -12 26 -5 -21 -23 -24 -23 -5 0 20 -44 37 -95 37 -25 0 -45 5 -45 10 0
6 -7 10 -16 10 -8 0 -12 5 -9 10 3 6 -2 10 -13 10 -10 0 -33 7 -51 16 -18 9
-41 14 -52 11 -10 -3 -19 -1 -19 4 0 5 10 9 22 9 12 0 19 2 16 6 -3 3 -46 -2
-94 -11 -49 -9 -116 -20 -150 -25 -34 -5 -70 -12 -80 -16 -15 -4 -16 -3 -4 4
16 10 273 60 575 112 233 39 235 40 235 52 0 13 -40 8 -395 -53 -452 -77 -516
-90 -522 -106 -8 -21 51 -134 111 -210 83 -105 205 -189 366 -252 41 -17 70
-30 63 -30 -27 -2 -204 78 -269 121 -148 99 -266 256 -294 395 -19 90 -8 256
20 323 119 279 446 468 845 488 77 4 143 6 148 4 4 -2 8 -33 8 -70z m1370 -37
c30 -27 100 -88 154 -135 55 -47 147 -128 205 -180 57 -52 116 -105 130 -117
14 -13 21 -23 17 -23 -5 0 -50 37 -101 83 -50 45 -123 109 -161 143 -191 166
-274 241 -315 283 -50 49 -16 24 71 -54z m-2852 -74 c0 -3 -37 -24 -81 -46
-73 -36 -247 -132 -257 -141 -3 -2 6 -15 19 -29 18 -20 25 -22 34 -12 15 18
185 126 286 183 11 6 17 14 13 17 -3 4 -1 7 5 7 7 0 12 -9 12 -20 0 -14 -32
-38 -122 -91 -68 -39 -152 -91 -188 -114 l-65 -43 -47 46 c-27 25 -48 50 -48
54 0 4 9 17 21 29 19 19 22 20 46 4 15 -10 28 -13 32 -7 3 5 20 16 36 25 17 8
83 46 148 85 77 45 125 68 137 65 11 -3 20 -8 19 -12z m2414 -233 c63 -62 118
-124 121 -138 7 -24 6 -24 -8 -6 -9 11 -16 26 -16 34 0 7 -4 10 -10 7 -5 -3
-10 0 -11 7 0 7 -36 44 -80 81 -69 60 -130 127 -115 127 2 0 56 -51 119 -112z
m2757 57 c-6 -8 -20 -17 -31 -20 -10 -4 -66 -35 -124 -71 -58 -35 -107 -64
-110 -64 -3 0 -22 -10 -43 -23 -60 -37 -178 -101 -167 -90 11 11 283 173 291
173 2 0 23 12 47 27 45 29 140 83 146 83 2 0 -2 -7 -9 -15z m3438 -68 c2 -29
0 -37 -13 -37 -13 0 -14 4 -5 20 8 14 8 26 -1 41 -9 17 -8 20 3 17 7 -3 14
-21 16 -41z m-71 27 c-3 -3 -12 -4 -19 -1 -8 3 -5 6 6 6 11 1 17 -2 13 -5z
m-9027 -25 c12 -8 9 -9 -10 -4 -24 6 -24 5 -6 -9 11 -9 15 -16 10 -16 -6 0
-15 5 -22 12 -15 15 -52 -16 -52 -43 0 -43 73 -47 90 -6 6 16 9 17 9 6 1 -9
-8 -27 -18 -40 -19 -23 -21 -23 -47 -9 -15 8 -32 23 -38 32 -15 25 4 71 34 79
35 10 33 10 50 -2z m9060 -4 c0 -8 -2 -15 -4 -15 -2 0 -6 7 -10 15 -3 8 -1 15
4 15 6 0 10 -7 10 -15z m-9084 -53 c1 -12 -2 -22 -6 -22 -14 0 -32 29 -25 40
11 17 30 6 31 -18z m60 -30 c-17 -16 -18 -16 -5 5 7 12 15 20 18 17 3 -2 -3
-12 -13 -22z m503 6 c9 -25 6 -38 -10 -38 -6 0 -9 6 -6 13 2 6 0 20 -5 30 -6
11 -5 17 2 17 6 0 14 -10 19 -22z m8037 -14 c24 -19 44 -39 44 -43 0 -5 -14
-11 -30 -15 -17 -3 -56 -23 -88 -44 -31 -22 -84 -54 -117 -71 -32 -17 -67 -38
-75 -46 -9 -8 -19 -15 -23 -15 -8 0 -206 -119 -227 -135 -8 -7 -40 -26 -70
-42 -67 -36 -83 -45 -181 -108 -97 -63 -191 -118 -329 -194 -19 -10 -60 -35
-90 -55 -30 -20 -60 -36 -67 -36 -7 0 -13 -5 -13 -11 0 -5 -4 -7 -10 -4 -5 3
-10 2 -10 -4 0 -6 -7 -7 -17 -4 -12 5 -14 3 -8 -7 4 -7 -13 2 -39 20 -26 18
-44 36 -39 40 4 4 98 61 208 125 328 193 1047 626 1090 656 22 15 42 28 44 29
2 0 24 -16 47 -36z m-8078 6 c12 -19 11 -20 -8 -8 -11 7 -20 16 -20 20 0 15
15 8 28 -12z m-30 -20 c7 -11 8 -20 4 -20 -5 0 -17 9 -27 20 -14 15 -15 20 -4
20 8 0 20 -9 27 -20z m122 -42 c-21 -17 -40 -16 -40 2 0 5 6 7 13 4 8 -3 20 3
28 12 12 15 11 16 -11 10 -24 -7 -24 -6 -5 9 17 14 20 14 29 -2 7 -12 3 -21
-14 -35z m-176 36 c9 -3 13 -10 10 -15 -8 -14 -21 -11 -28 6 -6 17 -4 18 18 9z
m-26 -29 c-3 -3 -9 2 -12 12 -6 14 -5 15 5 6 7 -7 10 -15 7 -18z m128 -34
c-10 -16 -23 -14 -30 5 -9 25 4 38 21 21 9 -8 12 -20 9 -26z m-173 15 c3 -8
18 -20 33 -28 15 -7 26 -17 25 -22 -2 -5 2 -12 8 -15 8 -5 6 -13 -4 -27 -13
-18 -14 -18 -15 -1 0 18 -57 97 -69 97 -3 0 -16 -8 -29 -18 l-23 -18 35 -33
c21 -20 36 -29 40 -22 4 6 -5 22 -20 36 -19 18 -22 25 -11 25 17 0 57 -45 57
-65 0 -7 -10 -15 -22 -19 -22 -6 -38 7 -88 71 -6 8 1 18 23 32 38 24 53 26 60
7z m3592 -50 c6 -4 1 -4 -10 2 -11 6 -31 23 -45 39 l-25 28 35 -30 c19 -16 40
-34 45 -39z m-3489 41 c10 4 12 0 8 -11 -5 -12 -2 -15 10 -10 9 3 16 2 16 -4
0 -5 -7 -12 -15 -16 -14 -5 -46 29 -44 49 0 5 3 5 5 -2 3 -7 12 -9 20 -6z
m8115 -17 c-13 -11 -28 -20 -35 -20 -6 0 3 9 19 20 38 25 47 25 16 0z m-8293
-72 c23 -23 42 -45 42 -48 0 -9 -47 -30 -63 -29 -7 0 -27 18 -46 40 -33 38
-33 40 -16 59 26 28 37 25 83 -22z m3732 -13 c13 -14 21 -25 18 -25 -2 0 -15
11 -28 25 -13 14 -21 25 -18 25 2 0 15 -11 28 -25z m-718 -162 c260 -228 264
-231 256 -239 -4 -3 -71 49 -150 117 -149 129 -328 298 -316 299 4 0 99 -80
210 -177z m1637 73 c-10 -9 -69 -36 -69 -32 0 7 52 35 64 36 5 0 7 -2 5 -4z
m-694 -109 c22 -22 31 -33 19 -25 -28 17 -134 115 -134 123 0 6 48 -35 115
-98z m1788 51 c23 -17 55 -58 44 -58 -2 0 -15 10 -29 23 -13 13 -40 35 -59 51
-25 20 -27 24 -9 15 14 -6 37 -21 53 -31z m-2 25 c13 -17 13 -17 -6 -3 -11 8
-22 16 -24 17 -2 2 0 3 6 3 6 0 17 -8 24 -17z m-3971 -23 c0 -5 -4 -10 -10
-10 -5 0 -10 5 -10 10 0 6 5 10 10 10 6 0 10 -4 10 -10z m3923 -10 c15 -12 36
-35 48 -52 l22 -30 -22 12 c-19 10 -28 8 -59 -13 -51 -34 -254 -156 -326 -196
-57 -31 -59 -31 -78 -14 -19 17 -19 16 1 -18 l22 -37 -53 -31 c-79 -47 -265
-175 -293 -201 -14 -13 -25 -19 -25 -14 0 5 -4 4 -8 -2 -4 -5 -24 -20 -45 -33
-32 -20 -38 -21 -43 -7 -3 9 -13 16 -21 16 -13 0 -13 -2 -2 -17 12 -14 12 -15
-1 -11 -8 3 -24 -2 -34 -11 -12 -9 -6 3 12 31 18 26 47 57 65 69 119 84 302
240 302 258 0 10 10 17 28 19 15 2 27 8 27 13 0 6 9 8 20 4 14 -4 18 -2 15 7
-5 13 99 91 185 138 25 14 47 28 50 31 7 8 173 107 181 108 4 1 18 -8 32 -19z
m-4916 4 c-3 -3 -12 -4 -19 -1 -8 3 -5 6 6 6 11 1 17 -2 13 -5z m756 -86 c-6
-7 -16 -30 -23 -51 -6 -21 -14 -37 -16 -34 -7 7 28 97 38 97 7 0 7 -4 1 -12z
m497 -163 c8 -11 -5 -2 -28 20 -24 22 -48 49 -54 60 -10 20 54 -43 82 -80z
m4694 46 c6 -9 -62 -26 -71 -17 -3 2 -2 9 2 15 8 13 62 15 69 2z m26 -45 c0
-14 -21 -26 -46 -26 -17 0 -19 26 -1 33 24 10 47 7 47 -7z m-5329 -27 c-5 -13
-10 -19 -10 -12 -1 15 10 45 15 40 3 -2 0 -15 -5 -28z m2283 12 c23 -25 13
-59 -19 -67 -40 -10 -69 24 -54 64 11 28 49 29 73 3z m2926 -1 c0 -5 -5 -10
-12 -10 -6 0 -62 -34 -124 -75 -83 -55 -133 -98 -191 -162 -121 -134 -145
-155 -234 -199 -151 -75 -209 -101 -209 -92 0 5 61 38 137 73 l136 65 141 143
c92 93 165 158 211 186 39 24 81 52 95 62 28 20 50 24 50 9z m-5209 -94 c-14
-36 -22 -33 -9 5 6 16 12 28 14 26 3 -2 0 -16 -5 -31z m727 -31 c-3 -3 -9 2
-12 12 -6 14 -5 15 5 6 7 -7 10 -15 7 -18z m1552 -39 c0 -18 -17 8 -24 34 l-7
25 15 -25 c9 -14 15 -29 16 -34z m1330 41 c0 -2 -10 -12 -22 -23 l-23 -19 19
23 c18 21 26 27 26 19z m-1615 -58 c12 -38 -35 -65 -63 -37 -19 19 -14 44 11
55 28 13 44 7 52 -18z m1535 -12 c0 -1 -21 -20 -47 -41 l-48 -38 44 41 c40 38
51 46 51 38z m-2022 -29 c-5 -13 -87 -62 -568 -335 -587 -334 -541 -316 -805
-315 -120 1 -220 7 -270 16 -126 22 -245 69 -245 96 0 5 9 2 20 -8 12 -9 24
-17 28 -18 4 0 25 -9 46 -18 75 -33 201 -49 411 -50 163 -1 210 2 255 16 61
19 289 147 1025 574 97 56 109 61 103 42z m391 -32 c9 -11 6 -18 -15 -35 -52
-41 -92 -12 -41 30 27 22 41 24 56 5z m1531 -19 c0 -2 -15 -16 -32 -33 l-33
-29 29 33 c28 30 36 37 36 29z m489 -1 c-8 -8 -119 -55 -119 -50 0 6 100 53
114 53 5 1 7 -1 5 -3z m-2118 -41 c0 -6 -27 -22 -61 -36 -33 -14 -74 -36 -91
-48 -18 -13 -28 -18 -24 -12 10 17 158 111 168 108 5 -1 8 -7 8 -12z m1872
-70 c-54 -24 -101 -41 -93 -32 8 8 124 56 135 56 6 0 -13 -11 -42 -24z m-1927
6 c-11 -16 -276 -167 -276 -157 0 7 115 85 160 109 109 59 127 67 116 48z
m1574 -31 c-33 -42 -50 -56 -50 -44 0 8 71 84 78 84 2 0 -11 -18 -28 -40z
m-661 -33 c88 -74 100 -90 85 -114 -6 -10 -50 -42 -98 -71 l-88 -53 -67 55
c-36 30 -79 68 -94 84 l-28 29 103 66 c57 37 105 67 108 67 3 0 38 -28 79 -63z
m876 4 c-54 -24 -92 -36 -82 -25 9 10 96 42 112 43 6 0 -8 -8 -30 -18z m-4199
-53 l29 -32 -32 25 c-18 13 -32 27 -32 32 -1 12 4 8 35 -25z m4074 12 c-8 -5
-19 -10 -25 -10 -5 0 -3 5 5 10 8 5 20 10 25 10 6 0 3 -5 -5 -10z m-145 -25
c26 -26 33 -41 15 -30 -6 4 -46 -12 -90 -35 -44 -22 -80 -38 -80 -36 0 3 34
25 76 49 42 25 70 47 63 49 -11 4 -84 -41 -176 -108 -13 -9 -23 -14 -23 -10 0
4 180 145 187 146 1 0 14 -11 28 -25z m1076 -26 c8 -15 8 -24 0 -32 -17 -17
-13 -31 4 -17 13 11 14 10 9 -5 -6 -15 -4 -16 15 -6 29 16 35 34 20 63 -12 23
-12 23 10 4 28 -25 27 -50 -5 -75 -35 -27 -57 -26 -88 3 -30 27 -33 48 -10 70
21 21 31 20 45 -5z"/>
<path d="M5155 9820 c-3 -5 -1 -10 4 -10 6 0 11 5 11 10 0 6 -2 10 -4 10 -3 0
-8 -4 -11 -10z"/>
<path d="M5060 8646 c0 -39 12 -52 29 -32 9 10 9 20 0 40 -17 36 -29 33 -29
-8z"/>
<path d="M5090 8590 c0 -5 5 -10 11 -10 5 0 7 5 4 10 -3 6 -8 10 -11 10 -2 0
-4 -4 -4 -10z"/>
<path d="M5140 8550 c0 -5 5 -10 11 -10 5 0 7 5 4 10 -3 6 -8 10 -11 10 -2 0
-4 -4 -4 -10z"/>
<path d="M7325 8960 c3 -5 8 -10 11 -10 2 0 4 5 4 10 0 6 -5 10 -11 10 -5 0
-7 -4 -4 -10z"/>
<path d="M8111 8144 c0 -11 3 -14 6 -6 3 7 2 16 -1 19 -3 4 -6 -2 -5 -13z"/>
<path d="M3770 8980 c0 -5 6 -10 13 -10 6 0 21 -7 32 -16 17 -13 18 -16 5 -24
-23 -15 -34 -12 -45 12 -11 23 -35 37 -35 19 0 -5 10 -22 23 -36 20 -24 25
-26 50 -14 33 15 35 42 5 63 -26 18 -48 21 -48 6z"/>
<path d="M3665 8921 c-3 -5 4 -13 16 -16 28 -9 36 1 10 14 -12 7 -22 7 -26 2z"/>
<path d="M4450 8885 c-11 -13 -10 -14 4 -9 9 3 16 10 16 15 0 13 -6 11 -20 -6z"/>
<path d="M3250 8410 c-11 -8 -8 -9 12 -4 55 13 108 -38 212 -203 32 -51 62
-95 66 -98 16 -10 -41 109 -73 154 -99 135 -168 184 -217 151z"/>
<path d="M2254 8118 c-42 -33 -53 -50 -54 -81 0 -30 34 -87 52 -87 6 0 54 23
106 52 l96 51 -50 43 c-58 52 -103 58 -150 22z"/>
<path d="M4080 8050 c-9 -6 -10 -10 -3 -10 6 0 15 5 18 10 8 12 4 12 -15 0z"/>
<path d="M4020 8020 c-9 -6 -10 -10 -3 -10 6 0 15 5 18 10 8 12 4 12 -15 0z"/>
<path d="M3960 7990 c-8 -5 -10 -10 -5 -10 6 0 17 5 25 10 8 5 11 10 5 10 -5
0 -17 -5 -25 -10z"/>
<path d="M4050 7919 c0 -5 5 -7 10 -4 6 3 10 8 10 11 0 2 -4 4 -10 4 -5 0 -10
-5 -10 -11z"/>
<path d="M4296 7821 c-5 -8 0 -21 14 -35 21 -20 22 -20 12 -1 -5 11 -11 27
-14 35 -3 11 -6 11 -12 1z"/>
<path d="M4248 7770 c12 -11 24 -20 28 -20 4 0 -1 9 -11 20 -10 11 -23 20 -28
20 -6 0 -1 -9 11 -20z"/>
<path d="M4546 7695 c24 -39 24 -40 24 -28 0 6 -9 21 -21 34 l-20 24 17 -30z"/>
<path d="M4434 7641 c20 -22 26 -25 26 -13 0 4 -10 13 -22 21 -23 14 -23 14
-4 -8z"/>
<path d="M4360 7616 c0 -2 8 -10 18 -17 15 -13 16 -12 3 4 -13 16 -21 21 -21
13z"/>
<path d="M4570 7605 c-14 -8 -20 -14 -15 -14 6 0 21 6 35 14 14 8 21 14 15 14
-5 0 -21 -6 -35 -14z"/>
<path d="M3845 7237 c-275 -139 -565 -287 -645 -329 -80 -41 -239 -124 -355
-183 -115 -59 -255 -131 -310 -160 -55 -29 -208 -108 -340 -175 -438 -223
-560 -289 -552 -297 3 -3 74 31 159 75 84 44 279 144 433 222 154 79 285 146
290 150 6 4 123 65 260 135 138 70 273 140 300 155 88 48 331 173 700 360 468
237 591 303 563 300 -2 0 -228 -114 -503 -253z"/>
<path d="M3854 7464 c-18 -14 -18 -15 4 -4 12 6 22 13 22 15 0 8 -5 6 -26 -11z"/>
<path d="M3810 7440 c-9 -6 -10 -10 -3 -10 6 0 15 5 18 10 8 12 4 12 -15 0z"/>
<path d="M4668 7430 c-200 -21 -378 -71 -532 -150 -120 -62 -184 -108 -278
-202 -76 -77 -94 -102 -142 -201 -46 -92 -58 -127 -67 -197 -30 -236 68 -480
262 -648 174 -150 261 -203 448 -271 136 -50 439 -102 471 -81 11 7 1 10 -35
10 -83 0 -278 38 -397 76 -376 121 -665 387 -703 644 -8 58 17 176 54 255 30
63 119 190 127 182 3 -3 -11 -27 -31 -53 -36 -47 -85 -145 -85 -168 1 -6 11
12 23 40 25 58 57 104 72 104 12 0 40 41 37 54 -2 5 5 3 15 -5 16 -13 16 -11
-1 16 -14 22 -15 27 -4 17 13 -11 22 -9 50 7 18 12 33 26 33 33 0 6 7 13 15
15 13 4 13 3 0 -6 -13 -9 -13 -11 2 -11 10 0 22 9 28 20 6 11 18 20 28 20 9 0
36 11 59 24 22 13 64 31 92 41 28 9 53 21 56 26 4 5 17 9 30 9 13 0 26 4 29 9
3 4 24 11 46 15 46 7 151 56 145 67 -8 12 114 32 285 44 142 11 458 -49 638
-121 70 -28 165 -84 194 -114 10 -10 25 -24 36 -32 10 -7 29 -29 42 -48 13
-19 32 -43 42 -53 10 -10 21 -36 24 -57 4 -22 11 -40 16 -40 5 0 6 6 2 13 -5
8 -3 8 9 -2 9 -7 14 -18 11 -23 -3 -5 0 -9 7 -7 8 1 20 1 27 0 20 -2 -5 -41
-26 -41 -13 -1 -12 -5 8 -20 14 -11 40 -32 58 -47 l32 -27 -22 -24 c-22 -24
-22 -24 -2 -18 16 5 23 0 33 -21 10 -22 14 -24 22 -12 7 11 9 11 9 1 0 -8 8
-26 18 -40 23 -33 42 -99 42 -142 0 -50 12 -28 26 47 11 64 12 66 13 23 4
-187 -188 -408 -472 -540 -107 -50 -188 -77 -322 -106 -66 -15 -88 -22 -56
-19 213 23 500 140 624 253 15 14 27 22 27 19 0 -21 145 157 174 213 62 118
81 199 80 335 -1 102 -5 133 -28 203 -100 308 -412 567 -796 663 -191 47 -445
67 -622 49z m-100 -267 c-10 -2 -26 -2 -35 0 -10 3 -2 5 17 5 19 0 27 -2 18
-5z m-61 -9 c-3 -3 -12 -4 -19 -1 -8 3 -5 6 6 6 11 1 17 -2 13 -5z m1383 -536
c14 -13 28 -22 32 -21 4 2 12 -6 18 -17 7 -14 7 -20 0 -20 -5 0 -10 4 -10 9 0
5 -8 12 -17 15 -29 10 -80 55 -62 56 8 0 26 -10 39 -22z"/>
<path d="M3685 7377 c-55 -29 -194 -102 -310 -161 -115 -60 -284 -148 -375
-196 -91 -48 -257 -133 -370 -190 -248 -124 -470 -240 -470 -245 0 -8 97 38
298 141 114 59 290 149 392 202 168 86 625 325 840 439 76 41 113 64 100 63
-3 -1 -50 -24 -105 -53z"/>
<path d="M5552 7318 c91 -47 254 -153 300 -196 15 -14 25 -30 21 -35 -3 -6 -2
-7 4 -4 12 7 66 -46 69 -69 1 -9 6 -19 10 -22 4 -4 4 2 0 13 -5 16 -2 15 14
-5 11 -14 18 -30 15 -37 -2 -7 1 -15 7 -19 7 -4 8 -3 4 4 -4 7 -5 12 -2 12 12
0 103 -174 124 -240 30 -96 39 -236 21 -356 -10 -69 -14 -82 -19 -59 l-6 30
-8 -39 c-4 -22 -19 -62 -32 -88 -14 -27 -22 -53 -19 -57 3 -5 -5 -20 -16 -32
l-21 -24 16 28 c22 37 13 34 -15 -5 -13 -17 -17 -28 -10 -23 9 5 12 3 9 -6 -3
-8 -11 -13 -17 -11 -7 1 -10 -1 -7 -6 7 -12 -124 -138 -186 -181 -125 -84
-336 -169 -510 -205 -121 -25 -321 -39 -459 -32 -322 15 -671 132 -834 277
-11 9 -64 56 -117 104 -101 90 -177 193 -213 288 -23 60 -30 56 -11 -7 14 -46
83 -164 128 -219 13 -16 65 -62 116 -104 50 -41 92 -77 92 -80 0 -6 0 -6 -95
69 -184 146 -256 270 -285 491 -21 155 3 305 70 437 31 60 66 109 56 78 -8
-25 -1 -22 19 8 9 15 12 23 5 19 -8 -5 -11 -3 -8 6 3 8 12 13 22 11 9 -2 17 2
17 8 1 5 2 16 3 23 1 6 7 11 13 10 13 -3 53 38 50 52 -4 17 146 134 220 172
39 21 70 39 68 41 -8 9 -123 -55 -193 -107 -221 -164 -341 -346 -377 -572 -3
-19 -7 -177 -8 -351 -1 -186 -6 -314 -11 -310 -5 3 -6 -5 -2 -19 4 -13 10 -41
13 -61 3 -21 10 -38 14 -38 5 0 9 -4 9 -9 0 -4 -11 -6 -25 -3 -22 4 -25 1 -25
-25 0 -22 15 -46 56 -91 30 -34 53 -66 50 -71 -4 -5 -1 -13 5 -16 5 -4 8 -13
5 -21 -3 -7 0 -12 7 -10 7 1 9 1 5 -1 -14 -8 -8 -25 6 -20 10 4 13 1 9 -9 -4
-10 0 -12 13 -7 12 4 15 3 10 -6 -5 -7 0 -22 10 -34 33 -39 2 -10 -141 134
-100 99 -141 134 -141 120 0 -11 5 -19 11 -18 5 1 9 -6 7 -15 -2 -10 2 -18 8
-18 5 0 10 -5 10 -12 0 -7 -28 14 -62 47 -34 33 -56 51 -48 40 12 -16 151
-176 170 -195 3 -3 27 -30 54 -60 27 -30 120 -128 207 -216 l158 -161 29 17
c34 21 49 40 31 40 -7 0 -10 2 -7 5 8 9 38 -6 32 -16 -9 -15 8 -10 28 8 10 9
21 13 25 9 4 -4 1 -12 -7 -17 -11 -8 -9 -9 10 -4 19 6 22 4 14 -4 -6 -7 -20
-13 -32 -14 -11 0 -19 -4 -16 -8 4 -7 -93 -59 -511 -274 -104 -54 -194 -101
-200 -105 -5 -4 -57 -31 -115 -61 -57 -29 -99 -54 -92 -57 7 -2 74 29 149 69
76 39 179 93 228 119 247 130 675 343 675 335 0 -2 -13 -11 -30 -20 -38 -20
-30 -39 23 -55 62 -20 76 -21 98 -10 10 6 19 9 19 6 0 -6 -117 -80 -205 -129
-129 -73 -329 -183 -430 -237 -55 -29 -154 -82 -220 -118 -66 -35 -132 -71
-148 -79 -15 -8 -25 -19 -22 -24 6 -9 117 43 235 111 36 20 137 75 225 122 88
48 203 109 255 137 87 47 291 149 400 200 40 18 43 19 23 2 -20 -16 -21 -20
-6 -25 9 -4 13 -9 10 -13 -4 -3 -2 -12 4 -19 7 -9 19 -10 45 -2 20 5 37 8 39
6 4 -4 -65 -44 -257 -152 -76 -43 -138 -81 -138 -85 0 -23 31 -11 214 83 241
124 395 190 330 141 -17 -13 -17 -14 -1 -15 9 0 17 -5 17 -11 0 -7 10 -9 25
-7 14 3 28 1 31 -3 3 -5 15 -9 27 -9 21 0 -117 -78 -533 -302 -113 -61 -209
-114 -215 -118 -5 -4 -73 -40 -150 -80 -77 -40 -153 -81 -170 -90 -36 -21
-120 -68 -154 -86 -21 -11 -22 -14 -9 -19 10 -4 51 12 100 38 192 102 464 250
473 257 11 8 94 53 265 142 63 33 156 82 205 108 317 167 449 232 374 182 -26
-17 -22 -17 132 -16 96 1 168 5 182 12 46 23 140 62 143 59 2 -2 -54 -34 -124
-72 -176 -95 -214 -117 -208 -122 2 -3 125 56 273 131 147 75 255 124 240 111
-37 -33 -16 -31 61 5 35 16 60 25 56 19 -4 -8 1 -9 17 -4 13 5 36 8 51 7 16 0
28 3 28 8 0 5 69 8 153 7 l153 -2 -76 -44 c-91 -53 -114 -73 -43 -37 143 71
158 72 215 14 l28 -28 52 25 c187 90 -275 -168 -609 -340 -385 -199 -628 -328
-638 -338 -16 -16 605 301 1136 582 121 63 151 74 110 41 -25 -22 -21 -26 10
-10 11 7 19 7 19 1 0 -5 -6 -12 -12 -14 -7 -3 -4 -6 7 -6 38 -2 152 -50 182
-77 6 -7 48 -29 93 -49 44 -21 80 -44 80 -52 0 -17 4 -16 42 3 16 9 27 11 24
5 -11 -17 -293 -178 -596 -339 -140 -75 -164 -97 -43 -40 37 18 70 32 73 33 3
0 23 12 45 26 39 25 75 42 75 35 0 -2 -18 -15 -40 -30 -23 -15 -46 -38 -52
-51 -6 -14 -19 -25 -29 -25 -10 0 -21 -5 -25 -12 -4 -7 -3 -8 4 -4 29 17 30
-8 2 -35 -16 -17 -30 -37 -30 -45 0 -11 -6 -13 -20 -9 -25 8 -37 -18 -19 -38
11 -12 21 -10 67 10 92 40 67 20 -46 -37 -59 -30 -123 -64 -142 -75 -19 -12
-61 -32 -92 -44 -32 -13 -55 -28 -52 -33 4 -5 -7 -3 -22 5 -34 18 -120 96
-117 106 1 4 -5 8 -14 8 -15 0 88 -103 186 -185 l44 -37 59 33 c32 17 125 67
206 111 842 450 872 466 872 451 0 -5 -6 -10 -12 -10 -7 0 -4 -6 8 -13 57 -34
118 -73 128 -83 6 -6 17 -9 25 -6 8 3 11 0 7 -6 -9 -14 -273 -163 -591 -332
-137 -74 -306 -164 -375 -202 -69 -37 -175 -94 -237 -125 -61 -32 -110 -59
-108 -61 4 -5 293 145 595 308 132 71 223 120 355 190 44 23 141 76 217 116
75 41 139 74 142 74 16 0 95 -63 90 -72 -4 -6 1 -6 14 1 11 6 24 11 28 11 11
0 -34 -32 -118 -84 -43 -26 -78 -50 -78 -52 0 -3 48 21 107 52 58 32 103 53
100 47 -4 -6 14 -21 39 -33 25 -13 47 -27 50 -31 2 -4 -22 -26 -53 -48 -66
-46 -64 -52 5 -17 60 30 97 42 88 28 -3 -6 14 -23 39 -39 25 -15 45 -31 45
-35 0 -6 -66 -51 -142 -97 -70 -42 -38 -31 74 26 73 37 113 53 116 45 2 -7 10
-12 18 -12 8 0 14 -6 14 -13 0 -7 16 -19 35 -28 l35 -15 -80 -48 c-85 -52
-104 -77 -23 -31 61 34 146 68 138 55 -3 -5 -1 -10 5 -10 20 0 71 -48 57 -53
-7 -3 -4 -6 6 -6 30 -2 11 -17 -103 -86 -61 -37 -110 -69 -110 -71 0 -3 15 3
33 14 17 11 77 43 131 71 97 49 134 62 121 41 -3 -5 0 -10 7 -10 7 0 26 -14
41 -32 16 -18 26 -28 24 -23 -3 6 8 10 24 11 16 1 28 0 27 -1 -2 -2 -47 -30
-100 -63 l-98 -61 -117 10 c-161 15 -210 13 -229 -5 -8 -9 -20 -16 -26 -16 -6
0 -9 -3 -6 -6 3 -3 31 2 62 11 49 14 71 15 169 5 61 -7 113 -13 115 -15 2 -2
-45 -28 -105 -59 -112 -58 -193 -105 -181 -106 4 0 30 13 58 30 28 16 53 30
56 30 3 0 74 38 157 84 192 105 281 150 272 137 -3 -6 0 -12 7 -13 7 0 24 -2
38 -4 14 -2 59 -10 100 -19 136 -30 277 -2 311 62 17 31 15 108 -3 178 -13 50
-13 50 29 133 38 72 43 91 43 148 0 61 -2 67 -37 104 -43 44 -46 46 -348 249
-303 203 -476 320 -503 341 -22 18 -22 18 20 13 l43 -6 -29 32 c-34 36 -56 40
-63 11 -3 -11 -7 -20 -9 -20 -8 0 -144 92 -149 101 -3 4 11 15 31 24 36 15 36
16 19 35 -23 26 -36 25 -68 -4 l-25 -24 -41 24 c-65 36 -131 86 -126 94 3 4
21 11 40 14 38 7 43 17 20 36 -12 10 -25 9 -65 -8 l-50 -21 -71 49 -72 49 29
11 c43 16 116 61 110 67 -3 3 -27 -8 -53 -24 -99 -59 -82 -62 -244 48 -79 55
-152 102 -161 105 -31 11 -20 22 53 61 39 21 81 46 92 55 12 10 -21 -5 -73
-33 -52 -27 -103 -53 -112 -56 -20 -6 -48 14 447 -318 198 -133 396 -267 440
-298 44 -31 114 -78 155 -103 41 -26 91 -60 110 -74 51 -40 516 -349 534 -356
23 -9 20 -21 -8 -28 -24 -6 -90 16 -100 33 -3 4 -36 27 -73 50 -102 62 -103
63 -168 106 -33 22 -61 43 -63 48 -2 4 -8 7 -13 7 -5 0 -42 22 -82 48 -539
361 -729 487 -807 537 -52 33 -123 79 -157 103 -35 23 -65 42 -68 42 -2 0 -48
28 -101 63 -53 34 -98 60 -101 59 -3 -2 -9 2 -14 9 -6 10 -13 9 -33 -5 -14 -9
-26 -12 -26 -6 0 6 -11 15 -25 20 -14 5 -52 27 -83 47 -71 47 -131 78 -137 71
-6 -6 69 -58 83 -58 5 0 35 -21 67 -46 33 -25 66 -49 74 -54 14 -7 13 -11 -3
-29 -11 -12 -24 -21 -30 -21 -13 0 -179 110 -218 145 -15 14 -28 23 -28 19 0
-3 -7 2 -16 11 -15 14 -15 18 1 41 16 24 18 25 35 9 14 -12 20 -13 26 -4 4 7
0 17 -10 25 -16 11 -13 15 23 45 l41 32 -23 15 c-64 43 -153 151 -138 168 5 5
4 50 -1 99 -11 114 -7 131 33 139 l31 6 -28 34 c-16 19 -34 35 -40 35 -7 1
-14 36 -17 89 -10 131 -32 217 -82 319 -100 203 -266 360 -500 473 -113 55
-148 61 -43 8z m-1692 -201 c0 -2 -9 -12 -20 -22 -24 -21 -27 -14 -4 9 15 15
24 20 24 13z m2349 -1090 c31 -29 69 -63 86 -76 29 -22 29 -23 11 -37 -24 -17
-40 -18 -30 -2 4 6 3 8 -3 5 -27 -17 -163 81 -163 117 0 23 17 46 34 46 5 0
34 -24 65 -53z m131 -417 c76 -50 143 -110 123 -110 -6 0 -13 6 -16 14 -5 12
-129 99 -192 134 -13 8 -15 11 -6 12 8 0 49 -23 91 -50z m60 -83 c30 -23 57
-43 59 -44 2 -2 2 -5 -1 -8 -3 -3 -12 0 -19 7 -8 8 -49 38 -92 67 -43 30 -80
58 -83 63 -8 13 69 -35 136 -85z m-211 57 c1 5 9 2 19 -7 9 -9 50 -32 90 -52
40 -19 70 -40 67 -45 -3 -6 1 -10 10 -10 11 0 15 -5 12 -14 -8 -21 13 -37 35
-25 14 8 20 6 24 -8 3 -10 10 -27 16 -38 10 -18 9 -19 -5 -6 -10 7 -17 11 -17
7 0 -6 -55 30 -190 127 -55 39 -76 60 -77 78 -2 22 -2 22 6 4 5 -11 10 -16 10
-11z m-1568 -57 c55 -49 149 -201 149 -242 0 -8 6 -15 13 -16 6 -1 -4 -5 -23
-10 -99 -24 -449 62 -450 112 0 15 83 114 117 139 81 58 142 64 194 17z m1789
-87 c0 -5 -2 -10 -4 -10 -3 0 -8 5 -11 10 -3 6 -1 10 4 10 6 0 11 -4 11 -10z
m208 -155 c46 -30 88 -60 95 -66 7 -6 56 -38 109 -72 169 -107 217 -140 325
-220 58 -42 120 -84 137 -93 17 -8 58 -35 91 -59 33 -24 93 -65 134 -90 40
-25 106 -70 145 -98 39 -29 93 -66 121 -82 27 -16 58 -37 69 -47 11 -10 35
-28 53 -41 18 -12 33 -26 33 -30 0 -5 -28 11 -62 36 -35 24 -191 130 -348 236
-157 106 -365 247 -463 314 -98 67 -257 174 -353 237 -97 63 -178 118 -180
123 -12 18 18 3 94 -48z m872 25 c0 -5 -2 -10 -4 -10 -3 0 -8 5 -11 10 -3 6
-1 10 4 10 6 0 11 -4 11 -10z m-1845 -100 c-3 -5 -12 -10 -18 -10 -7 0 -6 4 3
10 19 12 23 12 15 0z m-185 -54 c0 -2 -7 -7 -16 -10 -8 -3 -12 -2 -9 4 6 10
25 14 25 6z m2958 -605 c12 -11 22 -21 22 -23 0 -2 -16 -12 -35 -22 -28 -16
-37 -17 -50 -6 -9 7 -19 10 -23 6 -4 -4 1 -13 10 -20 15 -11 15 -14 -4 -44
-16 -25 -23 -30 -34 -22 -7 7 -10 18 -7 26 4 10 0 12 -11 8 -25 -9 -19 9 12
37 15 15 35 38 45 53 21 31 43 33 75 7z m-2318 -181 c0 -5 -4 -10 -10 -10 -5
0 -10 5 -10 10 0 6 5 10 10 10 6 0 10 -4 10 -10z m1900 -31 c0 -5 -13 0 -30
13 -16 12 -30 23 -30 25 0 2 14 -3 30 -12 17 -9 30 -20 30 -26z m40 -19 c8 -5
11 -10 5 -10 -5 0 -17 5 -25 10 -8 5 -10 10 -5 10 6 0 17 -5 25 -10z m194 -80
c2 -14 5 -26 5 -27 1 -2 1 -6 0 -9 0 -3 10 -15 23 -26 l23 -21 -29 7 c-15 4
-39 14 -53 23 -22 14 -24 22 -19 55 4 21 12 48 19 58 11 19 12 19 19 -7 4 -16
10 -39 12 -53z"/>
<path d="M2420 7080 c-9 -6 -10 -10 -3 -10 6 0 15 5 18 10 8 12 4 12 -15 0z"/>
<path d="M2365 7050 c-3 -6 1 -7 9 -4 18 7 21 14 7 14 -6 0 -13 -4 -16 -10z"/>
<path d="M2320 7030 c-8 -5 -10 -10 -5 -10 6 0 17 5 25 10 8 5 11 10 5 10 -5
0 -17 -5 -25 -10z"/>
<path d="M2254 6994 c-18 -14 -18 -14 6 -3 31 14 36 19 24 19 -6 0 -19 -7 -30
-16z"/>
<path d="M2205 6970 c-3 -6 1 -7 9 -4 18 7 21 14 7 14 -6 0 -13 -4 -16 -10z"/>
<path d="M2145 6940 c-3 -6 1 -7 9 -4 18 7 21 14 7 14 -6 0 -13 -4 -16 -10z"/>
<path d="M2090 6910 c-9 -6 -10 -10 -3 -10 6 0 15 5 18 10 8 12 4 12 -15 0z"/>
<path d="M1978 6856 c-109 -59 -110 -67 0 -12 50 25 92 48 92 51 0 9 -14 3
-92 -39z"/>
<path d="M5540 6844 c0 -11 23 -34 47 -48 6 -3 15 -1 19 5 4 7 3 9 -3 6 -6 -4
-16 0 -23 8 -9 11 -9 15 -1 15 7 0 9 5 5 11 -4 8 -9 7 -15 -2 -8 -12 -11 -11
-19 1 -5 8 -10 10 -10 4z"/>
<path d="M5620 6783 c0 -5 13 -21 30 -38 16 -16 43 -46 59 -65 27 -32 31 -34
46 -19 18 18 17 19 -75 99 -33 29 -60 39 -60 23z"/>
<path d="M1230 6647 c-120 -59 -115 -55 -108 -62 6 -7 228 97 228 107 0 13
-10 9 -120 -45z"/>
<path d="M3408 6584 c-38 -20 -36 -28 2 -9 17 9 30 18 30 20 0 7 -1 6 -32 -11z"/>
<path d="M1365 6579 c-4 -6 -4 -13 -1 -16 3 -4 6 -1 6 6 0 8 8 11 20 8 11 -3
18 -1 14 4 -7 12 -31 11 -39 -2z"/>
<path d="M1296 6561 c-7 -11 3 -41 14 -41 4 0 7 11 6 25 -1 25 -10 32 -20 16z"/>
<path d="M1240 6520 c0 -5 5 -10 11 -10 5 0 7 5 4 10 -3 6 -8 10 -11 10 -2 0
-4 -4 -4 -10z"/>
<path d="M1207 6513 c-10 -9 -9 -23 2 -23 5 0 11 7 15 15 5 15 -5 20 -17 8z"/>
<path d="M3250 6500 c-19 -11 -31 -19 -27 -20 11 0 67 29 67 35 0 7 -1 7 -40
-15z"/>
<path d="M1310 6500 c-18 -12 -2 -12 25 0 13 6 15 9 5 9 -8 0 -22 -4 -30 -9z"/>
<path d="M3520 6490 c-19 -11 -31 -19 -27 -20 11 0 67 29 67 35 0 7 -1 7 -40
-15z"/>
<path d="M3180 6465 c-14 -8 -20 -14 -14 -15 5 0 19 7 30 15 24 18 16 19 -16
0z"/>
<path d="M1508 6433 c12 -2 22 -10 22 -18 0 -8 -7 -11 -20 -8 -11 3 -20 0 -20
-6 0 -12 42 -15 53 -5 12 13 -14 44 -36 43 l-22 -2 23 -4z"/>
<path d="M3115 6430 c-3 -6 1 -7 9 -4 18 7 21 14 7 14 -6 0 -13 -4 -16 -10z"/>
<path d="M3405 6431 c-6 -5 -172 -91 -370 -192 -198 -101 -441 -225 -540 -276
-99 -52 -236 -122 -305 -156 -149 -73 -136 -65 -123 -78 7 -7 108 41 339 164
181 95 403 211 494 257 91 45 188 95 215 110 28 15 104 55 170 90 141 74 166
90 144 90 -8 0 -19 -4 -24 -9z"/>
<path d="M1434 6397 c3 -10 6 -23 6 -28 0 -5 5 -9 10 -9 14 0 12 13 -6 36 -14
17 -15 17 -10 1z"/>
<path d="M3060 6400 c-9 -6 -10 -10 -3 -10 6 0 15 5 18 10 8 12 4 12 -15 0z"/>
<path d="M2973 6360 c-13 -5 -23 -12 -23 -15 0 -9 16 -5 36 10 22 16 19 18
-13 5z"/>
<path d="M2902 6326 c-36 -21 -38 -27 -4 -15 18 6 35 15 38 20 7 12 -6 10 -34
-5z"/>
<path d="M6900 6316 c0 -2 8 -10 18 -17 15 -13 16 -12 3 4 -13 16 -21 21 -21
13z"/>
<path d="M1627 6293 c-3 -5 6 -19 19 -32 19 -19 28 -21 37 -12 8 8 9 16 1 29
-12 18 -49 28 -57 15z m48 -14 c12 -19 -5 -23 -22 -6 -16 16 -16 17 -1 17 9 0
20 -5 23 -11z"/>
<path d="M1725 6219 c-82 -43 -144 -78 -137 -79 17 0 289 137 297 150 11 17
-5 10 -160 -71z"/>
<path d="M2820 6281 c-493 -249 -638 -320 -652 -318 -18 2 -26 -15 -10 -21 10
-3 678 332 697 349 13 13 4 10 -35 -10z"/>
<path d="M2217 6259 c4 -13 8 -17 13 -9 5 8 14 2 28 -17 11 -15 24 -25 27 -21
7 7 -53 68 -66 68 -4 0 -5 -9 -2 -21z"/>
<path d="M4820 6276 c0 -2 8 -10 18 -17 15 -13 16 -12 3 4 -13 16 -21 21 -21
13z"/>
<path d="M1562 6250 c7 -11 16 -20 20 -20 5 0 3 9 -4 20 -7 11 -16 20 -20 20
-5 0 -3 -9 4 -20z"/>
<path d="M1610 6266 c0 -2 8 -10 18 -17 15 -13 16 -12 3 4 -13 16 -21 21 -21
13z"/>
<path d="M2184 6221 c16 -16 25 -34 22 -40 -4 -6 -3 -11 3 -11 21 0 19 17 -5
48 -14 18 -30 32 -37 32 -6 0 2 -13 17 -29z"/>
<path d="M2130 6223 c0 -13 29 -38 35 -31 3 3 -4 13 -15 23 -11 10 -20 13 -20
8z"/>
<path d="M1566 6195 c-11 -8 -16 -15 -10 -15 5 0 18 7 28 15 11 8 16 15 10 15
-5 0 -18 -7 -28 -15z"/>
<path d="M2099 6192 c11 -20 51 -58 51 -48 0 4 -10 20 -22 36 -24 32 -45 41
-29 12z"/>
<path d="M2324 6201 c-5 -4 -97 -53 -204 -108 -233 -119 -313 -164 -306 -170
3 -3 20 4 38 15 18 11 137 72 263 137 127 65 231 119 233 120 2 2 -1 6 -6 9
-5 3 -13 2 -18 -3z"/>
<path d="M2060 6182 c0 -5 7 -15 15 -22 8 -7 15 -8 15 -2 0 5 -7 15 -15 22 -8
7 -15 8 -15 2z"/>
<path d="M6253 6170 c-18 -11 -33 -22 -33 -26 0 -4 60 28 79 43 16 12 -20 -1
-46 -17z"/>
<path d="M2055 6140 c16 -16 33 -30 39 -30 5 0 -3 14 -19 30 -16 17 -33 30
-39 30 -5 0 3 -13 19 -30z"/>
<path d="M2010 6119 c19 -19 37 -33 39 -31 10 5 -37 57 -55 61 -13 2 -9 -6 16
-30z"/>
<path d="M3865 6120 c10 -11 20 -20 23 -20 3 0 -3 9 -13 20 -10 11 -20 20 -23
20 -3 0 3 -9 13 -20z"/>
<path d="M6410 6069 c-69 -38 -120 -69 -115 -69 6 0 69 32 140 70 72 38 123
69 115 69 -8 -1 -71 -32 -140 -70z"/>
<path d="M1940 6120 c0 -5 4 -10 9 -10 4 0 20 -11 35 -25 14 -13 26 -20 26
-15 0 11 -51 60 -62 60 -5 0 -8 -4 -8 -10z"/>
<path d="M1910 6103 c0 -9 54 -53 65 -53 11 0 -5 19 -35 40 -17 12 -30 17 -30
13z"/>
<path d="M1868 6064 c14 -26 39 -47 50 -42 4 1 -8 16 -27 33 -26 23 -32 25
-23 9z"/>
<path d="M1820 6062 c0 -4 14 -21 32 -38 l31 -29 -22 32 c-23 35 -41 50 -41
35z"/>
<path d="M3935 6050 c3 -5 8 -10 11 -10 2 0 4 5 4 10 0 6 -5 10 -11 10 -5 0
-7 -4 -4 -10z"/>
<path d="M1799 6033 c12 -23 29 -38 37 -31 2 3 -8 15 -22 29 -25 23 -26 23
-15 2z"/>
<path d="M4390 6041 c0 -6 4 -13 10 -16 6 -3 7 1 4 9 -7 18 -14 21 -14 7z"/>
<path d="M3988 6013 c93 -77 131 -105 185 -134 48 -26 64 -30 89 -23 l29 9
-42 33 c-44 33 -65 41 -53 20 4 -8 3 -10 -2 -5 -5 5 -9 14 -9 20 0 7 -8 11
-17 11 -10 -1 -16 3 -15 9 1 7 -8 13 -21 15 -12 2 -20 8 -17 13 4 5 1 9 -5 9
-6 0 -13 -7 -16 -15 -4 -8 -10 -15 -15 -15 -4 0 -6 6 -3 14 3 8 1 17 -5 21 -7
3 -8 0 -5 -10 5 -11 2 -14 -10 -9 -9 3 -13 11 -9 18 3 6 3 8 -2 4 -4 -4 -20 1
-34 11 -45 31 -57 33 -23 4z"/>
<path d="M1740 6014 c0 -15 49 -64 64 -64 6 0 1 8 -11 18 -12 9 -29 26 -37 37
-9 11 -16 15 -16 9z"/>
<path d="M7260 6006 c0 -2 8 -10 18 -17 15 -13 16 -12 3 4 -13 16 -21 21 -21
13z"/>
<path d="M4430 5996 c0 -2 7 -7 16 -10 8 -3 12 -2 9 4 -6 10 -25 14 -25 6z"/>
<path d="M6603 5944 c-57 -30 -103 -57 -103 -60 0 -2 50 21 110 51 100 50 124
65 103 65 -5 0 -54 -25 -110 -56z"/>
<path d="M3240 5976 c0 -2 7 -9 15 -16 13 -11 14 -10 9 4 -5 14 -24 23 -24 12z"/>
<path d="M7530 5945 c13 -14 26 -25 28 -25 3 0 -5 11 -18 25 -13 14 -26 25
-28 25 -3 0 5 -11 18 -25z"/>
<path d="M7345 5930 c10 -11 20 -20 23 -20 3 0 -3 9 -13 20 -10 11 -20 20 -23
20 -3 0 3 -9 13 -20z"/>
<path d="M2087 5934 c-8 -9 44 -64 55 -58 5 3 0 13 -11 21 -12 8 -21 21 -21
29 0 14 -12 19 -23 8z"/>
<path d="M2182 5908 c7 -15 15 -23 17 -17 2 6 -4 18 -13 27 -15 15 -15 15 -4
-10z"/>
<path d="M4366 5915 c-15 -11 -16 -15 -5 -15 8 0 24 7 35 15 14 11 15 14 4 14
-8 0 -24 -6 -34 -14z"/>
<path d="M2060 5897 c0 -8 10 -22 21 -33 l22 -19 -17 33 c-18 34 -26 40 -26
19z"/>
<path d="M7392 5894 c10 -10 20 -16 22 -13 3 3 -5 11 -17 18 -21 13 -21 12 -5
-5z"/>
<path d="M1976 5874 l-28 -16 41 -21 c32 -16 44 -18 53 -9 9 9 7 12 -9 12 -28
0 -53 10 -53 21 0 13 34 11 48 -3 7 -7 12 -8 12 -2 0 11 -21 34 -29 34 -4 -1
-19 -8 -35 -16z"/>
<path d="M7475 5821 c11 -12 29 -27 40 -33 l20 -10 -20 18 c-11 11 -29 26 -40
34 -20 15 -20 15 0 -9z"/>
<path d="M7725 5783 c46 -46 161 -143 170 -143 5 0 -59 58 -111 100 -10 9 -37
31 -59 49 l-40 34 40 -40z"/>
<path d="M4573 5780 c-34 -14 -28 -21 7 -9 17 6 30 13 30 15 0 6 -12 4 -37 -6z"/>
<path d="M4945 5760 c-13 -6 -15 -9 -5 -9 8 0 22 4 30 9 18 12 2 12 -25 0z"/>
<path d="M6958 5703 c-37 -20 -66 -39 -64 -41 5 -4 146 66 146 73 0 10 -17 4
-82 -32z"/>
<path d="M7580 5736 c0 -2 8 -10 18 -17 15 -13 16 -12 3 4 -13 16 -21 21 -21
13z"/>
<path d="M3112 5703 c-12 -27 -9 -30 289 -323 166 -162 305 -296 308 -297 3
-2 21 6 40 18 33 20 33 20 15 41 -11 11 -77 73 -149 136 -71 64 -209 192 -306
284 -97 92 -178 168 -180 168 -2 0 -10 -12 -17 -27z m48 -30 c0 -7 14 -27 30
-43 43 -42 26 -38 -21 5 -22 19 -36 35 -33 35 4 0 1 6 -5 13 -6 8 -8 17 -4 20
9 9 33 -12 33 -30z"/>
<path d="M5058 5683 c17 -2 47 -2 65 0 17 2 3 4 -33 4 -36 0 -50 -2 -32 -4z"/>
<path d="M7660 5666 c0 -2 8 -10 18 -17 15 -13 16 -12 3 4 -13 16 -21 21 -21
13z"/>
<path d="M2263 5618 c-59 -36 -34 -52 32 -21 35 17 42 36 14 40 -8 1 -29 -8
-46 -19z"/>
<path d="M7939 5607 c36 -39 41 -42 41 -29 0 4 -17 20 -38 36 l-37 29 34 -36z"/>
<path d="M2675 5600 c-19 -21 -17 -23 328 -366 l346 -345 34 22 34 23 -86 80
c-202 190 -482 455 -557 528 -80 79 -80 79 -99 58z m50 -60 c10 -11 16 -20 13
-20 -3 0 -13 9 -23 20 -10 11 -16 20 -13 20 3 0 13 -9 23 -20z m110 -100 c10
-11 16 -20 13 -20 -3 0 -13 9 -23 20 -10 11 -16 20 -13 20 3 0 13 -9 23 -20z
m61 -52 l29 -31 -32 23 c-18 13 -33 27 -33 32 0 13 5 10 36 -24z m225 -215
c13 -16 12 -17 -3 -4 -17 13 -22 21 -14 21 2 0 10 -8 17 -17z"/>
<path d="M8035 5523 c28 -25 49 -50 47 -55 -1 -5 2 -7 7 -4 10 6 77 -54 74
-66 -2 -3 5 -12 15 -20 15 -12 16 -11 3 5 -7 9 -9 17 -3 17 16 0 74 -71 69
-84 -3 -7 -1 -19 5 -27 8 -11 9 -11 4 3 -7 23 11 33 29 18 8 -7 15 -8 15 -3 0
5 -12 18 -27 30 -16 11 -84 68 -151 127 -127 109 -177 143 -87 59z"/>
<path d="M2411 5474 c-28 -17 -39 -30 -33 -36 12 -12 39 -4 72 22 17 13 22 22
15 29 -7 7 -24 2 -54 -15z"/>
<path d="M3557 5472 c-9 -10 -17 -22 -17 -26 0 -5 66 -74 148 -156 l147 -147
38 22 38 22 -157 149 c-86 82 -162 150 -168 152 -7 1 -20 -6 -29 -16z"/>
<path d="M3096 5373 l-29 -15 199 -199 c109 -110 204 -199 210 -199 7 0 22 8
35 19 l23 19 -99 99 c-156 154 -302 293 -306 292 -2 -1 -17 -8 -33 -16z m120
-85 l29 -33 -32 29 c-31 28 -38 36 -30 36 2 0 16 -15 33 -32z m133 -139 c70
-76 62 -76 -14 1 -33 33 -55 59 -50 59 6 -1 34 -28 64 -60z"/>
<path d="M2558 5329 c-36 -18 -50 -39 -28 -39 22 0 90 36 90 47 0 18 -19 16
-62 -8z"/>
<path d="M8310 5292 c0 -4 9 -14 19 -22 11 -7 17 -18 14 -23 -3 -6 -1 -7 6 -3
14 9 63 -28 53 -39 -4 -5 -2 -5 4 -2 6 3 21 -5 32 -18 12 -14 27 -25 33 -25 6
0 9 -7 5 -15 -5 -14 5 -19 32 -16 6 1 12 -5 12 -14 0 -9 7 -18 15 -21 8 -4 15
-12 15 -20 0 -8 5 -14 11 -14 5 0 7 -4 4 -10 -3 -5 0 -8 7 -5 7 3 30 -11 51
-31 26 -26 41 -34 48 -27 7 7 -30 44 -118 117 -70 59 -151 127 -180 151 -52
45 -63 52 -63 37z"/>
<path d="M8210 5276 c0 -2 7 -7 16 -10 8 -3 12 -2 9 4 -6 10 -25 14 -25 6z"/>
<path d="M3381 5235 c19 -22 75 -79 124 -127 71 -70 92 -85 104 -77 13 8 13 9
1 6 -9 -3 -63 42 -139 117 -69 66 -109 103 -90 81z"/>
<path d="M2691 5191 l-23 -18 212 -199 c116 -109 217 -200 223 -201 7 -2 23 6
37 17 l25 20 -65 62 c-220 210 -360 338 -372 338 -7 0 -24 -9 -37 -19z m430
-368 c13 -16 12 -17 -3 -4 -17 13 -22 21 -14 21 2 0 10 -8 17 -17z"/>
<path d="M2905 5190 c-19 -21 -17 -23 152 -192 l171 -171 31 19 c17 10 31 21
31 25 0 4 -62 63 -137 132 -76 69 -156 143 -178 166 -21 23 -42 41 -45 41 -4
0 -15 -9 -25 -20z"/>
<path d="M5528 5133 c7 -3 16 -2 19 1 4 3 -2 6 -13 5 -11 0 -14 -3 -6 -6z"/>
<path d="M5717 5106 c-3 -7 -27 -24 -54 -36 -26 -13 -61 -33 -78 -45 -16 -12
-61 -41 -100 -64 -160 -96 -186 -114 -177 -123 5 -5 38 8 79 32 38 22 73 40
77 40 4 0 41 20 84 44 42 24 114 62 160 86 80 41 82 43 66 61 -20 22 -50 25
-57 5z"/>
<path d="M7820 5032 c0 -12 19 -26 26 -19 2 2 -2 10 -11 17 -9 8 -15 8 -15 2z"/>
<path d="M8671 4976 c-9 -11 -3 -18 34 -36 25 -12 43 -26 39 -31 -3 -5 -7 -9
-10 -9 -3 0 -2 5 1 10 3 6 2 10 -4 10 -5 0 -9 -9 -8 -19 1 -19 8 -19 35 2 10
8 5 19 -25 49 -41 42 -46 44 -62 24z"/>
<path d="M8622 4955 c-17 -9 -19 -14 -9 -18 7 -3 19 4 25 14 7 10 11 19 10 18
-2 -1 -13 -7 -26 -14z"/>
<path d="M4045 4840 c-3 -5 4 -10 16 -10 18 0 19 -3 9 -15 -22 -26 -6 -40 18
-15 20 22 20 24 4 36 -21 16 -39 18 -47 4z"/>
<path d="M5990 4827 c-28 -14 -38 -37 -16 -37 9 0 16 6 16 14 0 8 10 16 23 18
12 2 17 6 11 10 -5 4 -21 1 -34 -5z"/>
<path d="M8690 4830 c0 -5 5 -10 10 -10 6 0 10 5 10 10 0 6 -4 10 -10 10 -5 0
-10 -4 -10 -10z"/>
<path d="M5105 4791 c-11 -11 -66 -43 -123 -71 -57 -29 -101 -54 -99 -57 3 -2
42 14 87 36 45 23 88 41 96 41 8 0 14 5 14 10 0 7 6 7 19 0 14 -7 22 -7 27 2
4 7 3 8 -4 4 -15 -9 -15 7 -1 21 14 14 41 5 32 -11 -3 -6 0 -5 8 2 12 11 11
15 -5 28 -25 18 -28 18 -51 -5z"/>
<path d="M3911 4766 c-9 -11 -9 -15 1 -19 8 -3 4 -8 -11 -14 -15 -6 -20 -12
-13 -17 15 -9 85 21 77 34 -13 21 -43 30 -54 16z"/>
<path d="M5770 4704 c-25 -14 -34 -22 -20 -18 25 7 70 33 70 40 0 5 1 6 -50
-22z"/>
<path d="M3757 4682 c-21 -23 -21 -38 -1 -46 25 -10 48 -6 69 10 20 15 20 15
-4 35 -29 24 -43 24 -64 1z"/>
<path d="M4834 4644 c-18 -14 -18 -14 6 -3 31 14 36 19 24 19 -6 0 -19 -7 -30
-16z"/>
<path d="M5665 4646 c-11 -6 -141 -78 -288 -160 -148 -81 -266 -150 -264 -152
7 -7 497 261 577 316 20 13 0 11 -25 -4z"/>
<path d="M3593 4595 c-73 -41 -107 -75 -90 -92 3 -3 51 19 107 48 67 36 100
59 98 69 -5 26 -31 21 -115 -25z m2 -25 c-3 -5 -12 -10 -18 -10 -7 0 -6 4 3
10 19 12 23 12 15 0z"/>
<path d="M3408 4506 c-16 -11 -16 -15 -2 -34 19 -27 36 -28 59 -2 18 20 18 21
-1 35 -23 18 -34 18 -56 1z m40 -18 c-3 -7 -11 -13 -18 -13 -7 0 -15 6 -17 13
-3 7 4 12 17 12 13 0 20 -5 18 -12z"/>
<path d="M5982 4471 c-11 -7 -11 -9 0 -14 9 -3 15 1 15 9 0 8 -1 14 -1 14 -1
0 -7 -4 -14 -9z"/>
<path d="M5878 4416 c-58 -35 -58 -41 0 -12 28 14 52 29 52 31 0 9 -14 4 -52
-19z"/>
<path d="M5795 4370 c-3 -6 1 -7 9 -4 18 7 21 14 7 14 -6 0 -13 -4 -16 -10z"/>
<path d="M5571 4303 c1 -14 279 -255 290 -251 9 3 -273 258 -286 258 -3 0 -5
-3 -4 -7z"/>
<path d="M4682 4278 c-17 -11 -29 -24 -26 -30 4 -6 9 -5 14 3 7 10 12 10 23 1
12 -10 16 -9 20 2 4 11 1 13 -11 9 -13 -5 -14 -3 -6 7 7 7 21 9 34 5 17 -5 19
-9 10 -15 -8 -5 -15 -18 -17 -31 -3 -19 -1 -20 12 -9 11 9 13 15 5 20 -8 5 -7
9 4 13 9 4 16 2 16 -3 0 -5 11 -19 25 -32 13 -13 21 -27 17 -33 -12 -18 -51
-35 -65 -29 -8 3 -25 -5 -38 -16 l-24 -22 25 16 c34 22 48 20 19 -2 -47 -36
-120 -71 -137 -66 -14 5 -15 4 -2 -5 12 -8 12 -11 -5 -18 -28 -11 -165 -94
-165 -100 0 -2 26 11 58 29 32 18 128 73 214 123 l157 89 -59 58 c-33 32 -61
58 -62 57 -2 0 -18 -10 -36 -21z"/>
<path d="M4602 4254 c10 -10 20 -16 22 -13 3 3 -5 11 -17 18 -21 13 -21 12 -5
-5z"/>
<path d="M5398 4155 c-32 -19 -124 -68 -205 -111 -82 -42 -152 -80 -158 -84
-5 -4 -59 -33 -120 -65 -60 -32 -139 -74 -175 -93 -144 -78 -345 -182 -352
-182 -4 0 42 -47 103 -105 60 -58 115 -105 121 -105 10 0 312 157 598 310 69
37 166 89 215 115 50 26 135 73 189 103 l99 55 -28 20 c-15 12 -68 56 -117 99
-48 43 -94 78 -101 77 -6 0 -38 -16 -69 -34z m-917 -529 c-6 -7 -7 -16 -3 -21
4 -4 -4 -2 -16 4 -38 20 -36 6 5 -35 48 -48 80 -92 42 -57 -61 56 -100 95 -97
98 2 1 16 9 33 18 33 17 52 13 36 -7z"/>
<path d="M4460 3630 c-9 -6 -10 -10 -3 -10 6 0 15 5 18 10 8 12 4 12 -15 0z"/>
<path d="M4645 4131 c-6 -11 13 -26 22 -17 4 3 0 6 -8 6 -11 0 -11 2 1 10 9 6
10 10 3 10 -6 0 -14 -4 -18 -9z"/>
<path d="M7478 4034 c-38 -20 -36 -28 2 -9 17 9 30 18 30 20 0 7 -1 6 -32 -11z"/>
<path d="M7414 3994 c-18 -14 -18 -15 4 -4 12 6 22 13 22 15 0 8 -5 6 -26 -11z"/>
<path d="M7340 3971 c0 -24 -58 -84 -72 -75 -6 4 -9 1 -6 -7 3 -8 15 -16 27
-17 15 -2 21 0 17 7 -4 6 -4 11 1 11 4 0 22 17 40 38 30 37 30 39 12 50 -16
10 -19 9 -19 -7z"/>
<path d="M6960 3940 c-12 -8 -10 -10 8 -10 13 0 20 4 17 10 -7 12 -6 12 -25 0z"/>
<path d="M4320 3900 c-8 -5 -10 -10 -5 -10 6 0 17 5 25 10 8 5 11 10 5 10 -5
0 -17 -5 -25 -10z"/>
<path d="M7408 3873 c7 -3 16 -2 19 1 4 3 -2 6 -13 5 -11 0 -14 -3 -6 -6z"/>
<path d="M6255 3830 c28 -12 37 -12 30 0 -3 6 -16 10 -28 9 -21 0 -21 -1 -2
-9z"/>
<path d="M5798 3804 c-27 -13 -48 -27 -48 -29 0 -3 23 6 50 20 28 14 50 28 50
30 0 7 1 7 -52 -21z"/>
<path d="M7350 3800 c-9 -6 -10 -10 -3 -10 6 0 15 5 18 10 8 12 4 12 -15 0z"/>
<path d="M7232 3746 c-43 -31 -53 -42 -24 -27 13 7 31 10 39 7 9 -4 25 4 39
19 l23 25 -22 0 c-12 -1 -37 -11 -55 -24z"/>
<path d="M5628 3714 c-49 -24 -88 -46 -88 -49 0 -6 23 4 108 48 39 20 72 39
72 42 0 7 5 9 -92 -41z"/>
<path d="M6268 3753 c7 -3 16 -2 19 1 4 3 -2 6 -13 5 -11 0 -14 -3 -6 -6z"/>
<path d="M6377 3739 c7 -7 15 -10 18 -7 3 3 -2 9 -12 12 -14 6 -15 5 -6 -5z"/>
<path d="M6615 3741 c-3 -5 9 -24 27 -42 17 -19 37 -49 45 -66 7 -18 15 -33
17 -33 10 0 -18 81 -35 99 -10 11 -19 24 -19 30 0 12 -28 22 -35 12z"/>
<path d="M6450 3710 c13 -6 27 -15 30 -19 3 -4 23 -10 45 -13 l40 -6 -40 18
c-22 10 -53 21 -70 24 -28 6 -29 6 -5 -4z"/>
<path d="M5910 3702 c0 -13 34 -42 49 -42 8 0 6 8 -6 25 -17 24 -43 34 -43 17z"/>
<path d="M7398 3644 c-27 -13 -48 -27 -48 -29 0 -3 23 6 50 20 28 14 50 28 50
30 0 7 1 7 -52 -21z"/>
<path d="M5430 3611 c-47 -26 -164 -89 -260 -140 -96 -52 -195 -105 -220 -119
-25 -14 -77 -42 -117 -63 -43 -23 -66 -40 -57 -43 8 -3 14 -2 14 2 0 4 10 12
23 18 12 6 56 29 97 51 41 22 140 75 220 118 211 112 400 217 400 221 0 8 -18
0 -100 -45z"/>
<path d="M6046 3621 c-5 -7 3 -11 21 -11 15 0 39 -3 53 -6 19 -5 22 -4 14 5
-15 17 -80 26 -88 12z"/>
<path d="M6234 3578 c0 -20 4 -34 8 -32 11 7 45 -13 105 -60 89 -70 182 -136
191 -136 5 0 17 10 28 23 10 12 12 16 4 10 -8 -7 -20 -13 -28 -13 -15 0 -145
88 -202 138 -21 17 -40 32 -44 32 -8 0 -42 34 -54 55 -8 14 -9 11 -8 -17z"/>
<path d="M7278 3579 c-32 -16 -58 -32 -58 -34 0 -3 27 8 60 25 33 17 60 32 60
35 0 7 2 8 -62 -26z"/>
<path d="M6160 3596 c0 -2 9 -6 20 -9 11 -3 18 -1 14 4 -5 9 -34 13 -34 5z"/>
<path d="M5790 3570 c-21 -7 -22 -8 -4 -9 11 -1 25 -6 32 -13 15 -15 24 -6 16
16 -7 18 -8 18 -44 6z"/>
<path d="M5573 3558 c-13 -6 -23 -18 -23 -26 0 -12 6 -10 25 8 35 33 34 36 -2
18z"/>
<path d="M6721 3514 c0 -11 3 -14 6 -6 3 7 2 16 -1 19 -3 4 -6 -2 -5 -13z"/>
<path d="M7138 3504 c-39 -21 -35 -28 5 -8 37 19 44 24 31 24 -5 -1 -21 -8
-36 -16z"/>
<path d="M6748 3493 c-22 -6 -22 -7 0 -65 30 -80 46 -74 17 7 -13 36 -13 41 2
53 17 12 12 13 -19 5z"/>
<path d="M5460 3440 c-19 -11 -31 -19 -27 -20 11 0 67 29 67 35 0 7 -1 7 -40
-15z"/>
<path d="M5689 3423 c-13 -17 -13 -17 6 -3 11 8 22 16 24 17 2 2 0 3 -6 3 -6
0 -17 -8 -24 -17z"/>
<path d="M6938 3394 c-38 -20 -36 -28 2 -9 17 9 30 18 30 20 0 7 -1 6 -32 -11z"/>
<path d="M5527 3347 c-4 -10 -7 -28 -6 -40 0 -21 1 -21 10 2 5 14 8 32 7 40
-3 13 -5 13 -11 -2z"/>
<path d="M6755 3296 c-33 -18 -141 -77 -240 -131 -99 -53 -184 -102 -190 -107
-14 -14 32 9 270 140 187 102 239 133 225 132 -3 0 -32 -15 -65 -34z"/>
<path d="M5945 3210 c-3 -6 1 -7 9 -4 18 7 21 14 7 14 -6 0 -13 -4 -16 -10z"/>
<path d="M5233 3193 c14 -14 19 -15 29 -4 11 10 10 11 -4 6 -11 -4 -18 -2 -18
4 0 6 -5 11 -12 11 -8 0 -6 -6 5 -17z"/>
<path d="M5290 3199 c0 -5 5 -7 10 -4 6 3 10 8 10 11 0 2 -4 4 -10 4 -5 0 -10
-5 -10 -11z"/>
<path d="M5844 3154 c-18 -14 -18 -15 4 -4 12 6 22 13 22 15 0 8 -5 6 -26 -11z"/>
<path d="M4925 3150 c-3 -6 1 -7 9 -4 18 7 21 14 7 14 -6 0 -13 -4 -16 -10z"/>
<path d="M5496 3143 c-4 -13 -14 -23 -21 -23 -18 0 -30 -19 -18 -31 13 -13 56
35 51 58 -4 16 -5 15 -12 -4z"/>
<path d="M6123 3137 c-23 -12 -43 -26 -43 -30 0 -8 63 26 85 45 14 13 4 9 -42
-15z"/>
<path d="M5782 3126 c-31 -18 -40 -29 -17 -20 25 9 63 34 50 33 -6 -1 -20 -7
-33 -13z"/>
<path d="M6000 3070 c-8 -5 -10 -10 -5 -10 6 0 17 5 25 10 8 5 11 10 5 10 -5
0 -17 -5 -25 -10z"/>
<path d="M5022 3043 c-8 -3 -5 -11 12 -24 23 -18 56 -17 56 2 0 13 -18 11 -22
-3 -2 -6 -10 -8 -17 -4 -7 5 -10 14 -7 22 6 14 0 16 -22 7z"/>
<path d="M5938 3034 c-38 -20 -36 -28 2 -9 17 9 30 18 30 20 0 7 -1 6 -32 -11z"/>
<path d="M6268 3029 c-21 -11 -38 -22 -38 -24 0 -3 18 4 40 15 22 11 40 23 40
25 0 7 0 7 -42 -16z"/>
<path d="M5290 3019 c0 -5 5 -7 10 -4 6 3 10 8 10 11 0 2 -4 4 -10 4 -5 0 -10
-5 -10 -11z"/>
<path d="M5864 2994 c-18 -14 -18 -14 6 -3 31 14 36 19 24 19 -6 0 -19 -7 -30
-16z"/>
<path d="M6189 2983 c-13 -17 -13 -17 6 -3 11 8 22 16 24 17 2 2 0 3 -6 3 -6
0 -17 -8 -24 -17z"/>
<path d="M5375 2970 c-3 -5 -1 -10 4 -10 6 0 11 5 11 10 0 6 -2 10 -4 10 -3 0
-8 -4 -11 -10z"/>
<path d="M5463 2967 c-13 -5 -23 -18 -23 -29 0 -24 12 -23 39 6 25 27 17 39
-16 23z"/>
<path d="M5095 2960 c3 -5 11 -10 16 -10 6 0 7 5 4 10 -3 6 -11 10 -16 10 -6
0 -7 -4 -4 -10z"/>
<path d="M5785 2950 c-16 -11 -25 -20 -20 -20 10 0 64 39 55 40 -3 0 -18 -9
-35 -20z"/>
<path d="M6125 2950 c-3 -6 1 -7 9 -4 18 7 21 14 7 14 -6 0 -13 -4 -16 -10z"/>
<path d="M6068 2919 c-21 -11 -38 -22 -38 -24 0 -3 18 4 40 15 22 11 40 23 40
25 0 7 0 7 -42 -16z"/>
<path d="M5165 2900 c10 -11 20 -20 23 -20 3 0 -3 9 -13 20 -10 11 -20 20 -23
20 -3 0 3 -9 13 -20z"/>
<path d="M6000 2880 c-9 -6 -10 -10 -3 -10 6 0 15 5 18 10 8 12 4 12 -15 0z"/>
<path d="M5610 2855 c-14 -8 -20 -14 -14 -15 5 0 19 7 30 15 24 18 16 19 -16
0z"/>
<path d="M5760 2754 c-96 -53 -179 -100 -185 -106 -5 -6 31 11 80 37 217 116
288 155 293 160 18 18 -34 -8 -188 -91z"/>
<path d="M5244 2831 c3 -5 15 -7 26 -4 28 7 25 13 -6 13 -14 0 -23 -4 -20 -9z"/>
<path d="M5447 2769 c-10 -6 -21 -8 -24 -6 -3 3 -16 -6 -30 -21 -16 -18 -26
-23 -30 -14 -2 6 -9 12 -15 12 -6 0 -3 -9 7 -20 18 -19 18 -19 50 8 17 15 40
32 51 39 24 15 16 16 -9 2z"/>
<path d="M5415 2670 c10 -11 20 -20 23 -20 3 0 -3 9 -13 20 -10 11 -20 20 -23
20 -3 0 3 -9 13 -20z"/>
<path d="M5503 2618 c-13 -6 -23 -15 -23 -20 0 -8 17 -1 50 22 20 13 1 12 -27
-2z"/>
<path d="M2038 8539 c-20 -6 -55 -26 -77 -46 -35 -30 -41 -40 -41 -75 0 -81
105 -148 209 -133 73 10 106 23 137 56 53 56 31 142 -47 181 -43 22 -133 30
-181 17z m134 -80 c41 -22 25 -89 -27 -109 -71 -27 -159 57 -107 102 30 28 89
30 134 7z"/>
<path d="M2082 8441 c-25 -15 -10 -46 22 -46 35 0 59 30 36 45 -19 12 -41 12
-58 1z"/>
<path d="M9385 7920 c-3 -6 1 -7 9 -4 18 7 21 14 7 14 -6 0 -13 -4 -16 -10z"/>
<path d="M9318 7886 c-21 -11 -38 -24 -38 -28 0 -9 68 30 76 43 7 11 7 11 -38
-15z"/>
<path d="M6376 8474 c-9 -23 8 -38 23 -21 9 11 8 17 -3 26 -11 9 -15 8 -20 -5z"/>
<path d="M7198 8197 c-77 -42 -112 -72 -41 -36 21 10 46 16 58 13 16 -4 17 -3
5 5 -8 6 -10 11 -5 11 6 0 24 11 40 25 40 32 34 30 -57 -18z"/>
<path d="M7252 8191 c-11 -7 -11 -9 0 -14 9 -3 15 1 15 9 0 8 -1 14 -1 14 -1
0 -7 -4 -14 -9z"/>
<path d="M6636 7702 c-7 -12 415 -322 438 -322 20 0 -104 105 -184 156 -97 63
-212 148 -217 160 -6 15 -29 19 -37 6z"/>
<path d="M7102 7360 c4 -12 70 -60 284 -209 39 -28 78 -57 86 -65 11 -11 18
-12 26 -4 12 12 -82 87 -266 210 -113 76 -137 88 -130 68z"/>
<path d="M7520 7053 c0 -5 62 -51 137 -103 76 -52 175 -123 221 -158 80 -61
104 -71 85 -38 -11 20 -123 104 -286 213 -131 89 -157 103 -157 86z"/>
<path d="M7409 6939 c-11 -7 -11 -9 4 -9 17 0 22 -11 10 -23 -3 -4 -12 -2 -20
4 -10 9 -13 8 -13 -5 0 -22 27 -31 45 -16 31 26 8 71 -26 49z"/>
<path d="M7990 6723 c1 -14 24 -38 65 -65 22 -15 65 -45 95 -67 30 -22 99 -70
154 -108 54 -37 107 -74 117 -82 17 -12 19 -11 19 7 0 12 -11 27 -25 34 -13 7
-75 49 -137 94 -183 131 -288 199 -288 187z"/>
<path d="M8460 6385 c0 -9 9 -15 21 -15 18 0 19 2 9 15 -7 8 -16 15 -21 15 -5
0 -9 -7 -9 -15z"/>
<path d="M8515 6349 c8 -18 86 -75 363 -267 92 -63 139 -77 72 -21 -45 37
-405 288 -425 295 -10 4 -13 2 -10 -7z"/>
<path d="M1106 7185 c-11 -8 -15 -15 -10 -15 6 0 19 7 30 15 10 8 15 14 9 14
-5 0 -19 -6 -29 -14z"/>
<path d="M1010 7134 l-25 -15 25 7 c28 7 35 12 29 18 -2 2 -15 -2 -29 -10z"/>
<path d="M935 7099 c-16 -10 -25 -19 -20 -19 6 0 24 9 40 20 17 11 26 20 20
19 -5 0 -23 -9 -40 -20z"/>
<path d="M855 7059 c-16 -10 -34 -21 -40 -23 -5 -2 -7 -7 -3 -11 5 -5 16 -1
25 7 10 9 28 19 41 22 12 4 22 12 22 17 0 13 -11 10 -45 -12z"/>
<path d="M636 6905 c-11 -8 -16 -15 -10 -15 5 0 18 7 28 15 11 8 16 15 10 15
-5 0 -18 -7 -28 -15z"/>
<path d="M7862 6617 c-8 -9 -5 -16 11 -27 21 -12 21 -12 7 5 -14 16 -13 17 8
11 27 -9 29 0 3 13 -14 8 -22 7 -29 -2z"/>
<path d="M8274 5819 c-3 -6 -1 -16 5 -22 8 -8 11 -5 11 11 0 24 -5 28 -16 11z"/>
<path d="M9396 4877 c-13 -9 -17 -20 -12 -32 6 -17 8 -17 22 -3 9 9 14 23 12
32 -3 15 -5 15 -22 3z"/>
<path d="M10046 4537 c3 -10 9 -15 12 -12 3 3 0 11 -7 18 -10 9 -11 8 -5 -6z"/>
<path d="M9983 4516 c9 -9 24 -12 38 -9 22 6 23 5 9 -12 -14 -17 -14 -18 8 -6
23 12 23 13 5 26 -10 8 -31 15 -46 15 -25 0 -27 -2 -14 -14z"/>
<path d="M272 4458 c-7 -7 -12 -18 -12 -26 0 -12 3 -12 15 -2 9 7 19 10 23 6
4 -4 -2 -14 -12 -22 -22 -15 -15 -30 9 -20 25 9 29 36 9 57 -16 15 -22 17 -32
7z"/>
<path d="M3072 2660 c0 -14 2 -19 5 -12 2 6 2 18 0 25 -3 6 -5 1 -5 -13z"/>
<path d="M3052 2505 c0 -16 2 -22 5 -12 2 9 2 23 0 30 -3 6 -5 -1 -5 -18z"/>
<path d="M2967 2083 c-4 -3 -7 -11 -7 -17 0 -6 5 -5 12 2 6 6 9 14 7 17 -3 3
-9 2 -12 -2z"/>
<path d="M2593 2033 c9 -2 23 -2 30 0 6 3 -1 5 -18 5 -16 0 -22 -2 -12 -5z"/>
<path d="M2548 2013 c6 -2 18 -2 25 0 6 3 1 5 -13 5 -14 0 -19 -2 -12 -5z"/>
<path d="M1183 2459 c-8 -8 -2 -20 23 -46 36 -36 64 -38 64 -5 0 27 -10 33
-32 21 -26 -14 -38 -1 -15 15 9 7 17 16 17 20 0 10 -45 7 -57 -5z"/>
<path d="M9070 1960 c-311 -186 -598 -358 -637 -382 -122 -72 -85 -78 42 -7
199 112 1179 706 1183 717 2 7 -2 12 -10 11 -7 0 -267 -153 -578 -339z"/>
<path d="M1313 2163 c-19 -7 -16 -27 8 -57 20 -25 69 -37 69 -17 0 17 -65 79
-77 74z"/>
<path d="M5032 1693 c4 -22 43 -25 43 -3 0 8 -11 16 -23 18 -19 3 -23 0 -20
-15z"/>
<path d="M5348 1293 c-9 -9 -45 -33 -80 -53 -35 -20 -63 -41 -63 -46 0 -19
149 -145 165 -139 25 10 120 69 141 88 11 11 19 27 17 37 -3 19 -133 130 -152
130 -7 0 -19 -7 -28 -17z m32 -34 c0 -12 -69 -79 -81 -79 -21 0 -6 29 21 40
16 7 32 21 35 31 7 20 25 26 25 8z m-1 -78 c-13 -11 -26 -18 -28 -15 -7 7 21
34 36 34 10 0 8 -6 -8 -19z m79 -11 c18 -29 -3 -24 -22 5 -11 16 -12 23 -3 20
7 -3 18 -14 25 -25z m-43 -9 c-6 -5 -21 -12 -35 -16 -24 -7 -24 -7 -5 9 21 16
56 23 40 7z m15 -31 c-24 -15 -37 -11 -16 5 11 8 22 12 25 9 3 -3 -1 -9 -9
-14z"/>
<path d="M10171 6714 c33 -36 59 -49 59 -30 0 13 -57 56 -75 56 -5 0 2 -12 16
-26z"/>
<path d="M10195 6214 c-90 -46 -132 -134 -121 -253 3 -36 6 -67 6 -69 0 -2 3
-1 8 1 4 3 7 -8 8 -23 1 -38 32 -95 91 -168 50 -64 76 -61 28 3 -15 19 -25 35
-22 35 3 0 -11 31 -33 68 -37 66 -68 152 -65 182 1 8 3 31 4 50 1 28 14 50 72
113 72 79 76 88 24 61z m-40 -66 c-27 -29 -50 -55 -52 -57 -2 -2 -3 1 -3 8 0
14 79 101 93 101 5 0 -12 -24 -38 -52z m-20 -317 c3 -11 17 -36 31 -56 13 -20
20 -35 14 -33 -16 5 -74 108 -61 108 5 0 12 -9 16 -19z"/>
<path d="M10193 6148 c-61 -64 -76 -101 -70 -169 5 -62 34 -133 86 -214 l32
-50 -3 50 c-1 28 -7 53 -13 57 -6 5 -5 8 3 8 6 0 12 5 12 10 0 6 -11 8 -25 4
-14 -3 -25 -3 -25 0 0 4 11 11 25 16 l25 10 0 160 c0 88 -1 160 -3 160 -2 0
-21 -19 -44 -42z m17 -46 c0 -5 -12 -14 -27 -21 l-28 -12 25 21 c29 22 30 23
30 12z"/>
<path d="M857 4483 c-21 -3 -27 -9 -23 -20 3 -8 6 -20 6 -26 0 -7 4 -6 10 3 8
12 39 15 182 14 201 0 345 -25 377 -65 18 -22 18 -22 44 -3 15 10 27 22 27 25
0 7 -202 55 -290 69 -63 10 -276 11 -333 3z"/>
<path d="M1725 4160 c3 -5 11 -10 16 -10 6 0 7 5 4 10 -3 6 -11 10 -16 10 -6
0 -7 -4 -4 -10z"/>
<path d="M30 4059 c0 -7 -8 -18 -17 -25 -10 -7 -15 -15 -11 -19 9 -9 57 27 58
43 0 6 -7 12 -15 12 -8 0 -15 -5 -15 -11z"/>
<path d="M32 4008 l-32 -20 0 -209 c0 -115 4 -209 8 -209 5 0 30 7 56 16 40
14 47 20 42 38 -29 121 -30 243 -4 342 11 38 10 47 -2 54 -20 13 -30 11 -68
-12z"/>
<path d="M147 3795 c3 -27 7 -52 9 -54 7 -8 2 54 -6 79 -6 17 -7 9 -3 -25z"/>
<path d="M2210 3802 c0 -6 6 -12 14 -15 9 -4 12 -14 9 -29 -5 -22 -5 -22 13
-5 15 13 16 21 8 35 -12 19 -44 29 -44 14z"/>
<path d="M2106 3781 c-10 -11 -13 -22 -8 -25 5 -3 13 4 17 17 8 22 8 22 12 -3
2 -14 13 -32 25 -39 16 -10 19 -10 12 0 -4 7 -9 23 -10 36 -4 31 22 30 30 -2
4 -14 11 -25 16 -25 13 0 13 16 0 41 -14 26 -71 26 -94 0z"/>
<path d="M761 3584 c0 -11 3 -14 6 -6 3 7 2 16 -1 19 -3 4 -6 -2 -5 -13z"/>
<path d="M1387 3551 c-40 -26 -47 -36 -12 -18 42 23 62 37 50 36 -5 0 -22 -8
-38 -18z"/>
<path d="M731 3534 c0 -11 3 -14 6 -6 3 7 2 16 -1 19 -3 4 -6 -2 -5 -13z"/>
<path d="M1275 3430 c-13 -5 -14 -9 -5 -9 8 0 24 4 35 9 13 5 14 9 5 9 -8 0
-24 -4 -35 -9z"/>
<path d="M1210 3420 c8 -5 22 -9 30 -9 10 0 8 3 -5 9 -27 12 -43 12 -25 0z"/>
<path d="M1148 3393 c7 -3 16 -2 19 1 4 3 -2 6 -13 5 -11 0 -14 -3 -6 -6z"/>
<path d="M1846 3385 c-11 -8 -28 -13 -38 -9 -10 3 -18 1 -18 -5 0 -17 34 -18
63 -2 15 8 27 19 27 23 0 12 -13 9 -34 -7z"/>
</g>
</svg>
